<?xml version="1.0" standalone="no"?>
<!DOCTYPE svg PUBLIC "-//W3C//DTD SVG 20010904//EN"
 "http://www.w3.org/TR/2001/REC-SVG-20010904/DTD/svg10.dtd">
<svg version="1.0" xmlns="http://www.w3.org/2000/svg"
 width="4000.000000pt" height="672.000000pt" viewBox="0 0 4000.000000 672.000000"
 preserveAspectRatio="xMidYMid meet">
<metadata>
Created by potrace 1.16, written by Peter Selinger 2001-2019
</metadata>
<g transform="translate(0.000000,672.000000) scale(0.100000,-0.100000)"
fill="#000000" stroke="none">
<path d="M885 6691 c-110 -27 -187 -55 -264 -97 -184 -100 -338 -265 -416
-444 -39 -89 -40 -90 -97 -90 -41 0 -54 -5 -79 -29 -35 -36 -38 -77 -8 -116
19 -23 28 -26 65 -23 l44 3 -7 -67 c-8 -86 12 -267 42 -388 34 -134 75 -229
150 -340 51 -78 80 -109 147 -161 109 -84 285 -173 386 -194 42 -8 93 -19 112
-23 l35 -7 6 -235 c4 -129 10 -451 14 -715 8 -480 8 -480 -14 -515 -11 -19
-21 -52 -21 -72 0 -20 -18 -101 -39 -180 -73 -263 -80 -294 -115 -479 -95
-501 -132 -942 -85 -1017 23 -36 65 -48 105 -29 19 9 34 22 35 29 1 7 2 92 4
188 3 210 37 475 106 840 25 132 100 420 109 420 21 0 189 -397 228 -540 59
-216 85 -457 64 -598 -13 -89 10 -132 71 -132 80 0 92 36 92 270 0 152 -4 205
-23 298 -57 282 -152 532 -317 833 -30 53 -27 -3 -46 1034 -6 330 -13 603 -15
607 -3 4 0 17 6 28 8 16 21 20 58 20 111 0 330 81 460 168 123 85 247 243 301
386 56 151 68 403 25 538 -5 18 -2 19 38 13 23 -3 76 -7 116 -8 67 -2 75 0 93
22 26 31 25 85 -2 110 -25 23 -51 28 -198 37 -113 7 -114 7 -130 36 -97 176
-263 375 -400 479 -79 59 -183 112 -266 134 -95 26 -274 29 -370 6z m366 -175
c93 -32 192 -100 289 -197 75 -76 197 -235 187 -245 -3 -3 -157 7 -343 22
-282 22 -372 25 -534 20 -192 -6 -403 -21 -468 -32 l-34 -5 32 59 c133 250
427 419 706 408 64 -3 113 -12 165 -30z m244 -591 c176 -15 324 -31 329 -35
18 -17 38 -118 43 -221 7 -132 -12 -229 -69 -349 -33 -70 -56 -100 -127 -171
-102 -101 -198 -155 -344 -194 l-94 -25 -142 15 c-78 9 -151 13 -161 10 -10
-3 -25 -16 -34 -30 -15 -22 -17 -23 -61 -10 -67 21 -190 88 -268 146 -106 80
-200 236 -242 404 -31 120 -50 312 -38 390 l8 60 130 12 c397 38 588 38 1070
-2z"/>
<path d="M36285 6650 c-249 -40 -484 -177 -631 -370 -24 -31 -46 -50 -59 -50
-46 0 -128 30 -161 59 -43 39 -91 42 -122 8 -66 -70 32 -185 181 -212 20 -4
37 -10 37 -14 0 -3 -11 -41 -25 -83 -54 -168 -54 -375 0 -595 35 -144 76 -235
165 -368 112 -166 375 -316 613 -350 26 -4 49 -10 51 -14 3 -4 6 -90 7 -191
l2 -185 -26 -5 c-14 -3 -69 -41 -122 -85 -121 -99 -335 -253 -615 -441 l-216
-145 -551 -6 -552 -6 -15 54 c-59 204 -94 452 -103 730 l-6 186 59 7 c90 11
174 56 257 141 117 118 198 271 267 505 52 178 63 437 25 579 -8 30 -12 58
-10 61 3 4 28 15 57 25 99 32 145 56 157 81 16 36 14 58 -10 89 -19 23 -27 26
-63 22 -23 -2 -75 -16 -116 -31 -69 -26 -76 -27 -85 -11 -217 366 -463 525
-724 471 -175 -37 -353 -160 -488 -339 -29 -38 -53 -73 -55 -78 -5 -14 -172 7
-210 26 -42 20 -70 19 -102 -6 -20 -16 -26 -29 -26 -58 0 -64 61 -103 183
-116 65 -7 68 -9 63 -30 -26 -104 -33 -302 -16 -445 23 -184 95 -391 178 -513
39 -55 127 -141 170 -164 26 -14 32 -24 32 -50 0 -19 8 -41 19 -52 19 -19 173
-73 246 -87 l35 -6 2 -149 c1 -82 2 -166 3 -186 0 -38 -1 -39 -195 -180 -241
-177 -413 -293 -595 -400 l-140 -83 -421 0 -421 0 -6 238 c-7 278 -25 637 -37
737 -7 68 -7 71 19 92 14 12 37 25 51 28 99 23 303 239 485 513 26 39 53 72
60 72 6 0 34 -7 61 -15 80 -24 111 -20 134 18 35 55 8 108 -64 129 -23 6 -44
14 -48 17 -4 4 4 37 18 76 64 175 28 342 -100 463 -65 62 -121 94 -221 128
-71 24 -99 27 -245 31 -209 5 -331 -15 -502 -83 l-117 -47 -103 46 c-132 59
-174 66 -211 37 -21 -17 -27 -30 -27 -58 1 -50 18 -69 83 -91 95 -33 95 -29 7
-104 -138 -117 -223 -251 -256 -401 -20 -96 -15 -306 11 -400 39 -142 112
-244 208 -293 90 -45 355 -93 517 -93 l68 0 6 -47 c3 -27 8 -88 11 -138 3 -49
8 -113 11 -142 l5 -52 -48 -21 c-38 -17 -112 -86 -353 -331 l-305 -309 -815 0
c-448 0 -825 3 -837 6 -29 8 -32 34 -39 325 -7 265 4 430 32 460 12 13 38 18
113 21 89 3 105 7 173 41 172 85 324 280 353 455 8 50 9 50 128 17 68 -18 94
-22 114 -14 35 13 52 38 53 75 0 50 -32 69 -181 110 -134 36 -137 37 -154 73
-30 64 -103 157 -167 215 -65 59 -189 131 -279 162 -79 27 -265 25 -378 -4
-152 -40 -322 -124 -463 -230 l-73 -55 -123 7 -123 6 -31 -30 c-25 -26 -29
-36 -24 -63 9 -47 36 -64 115 -72 l69 -7 -14 -45 c-69 -229 168 -590 433 -660
59 -16 225 -14 267 3 17 6 18 4 13 -27 -4 -19 -10 -100 -13 -181 l-7 -148 -43
0 c-35 0 -63 -11 -141 -58 -54 -32 -237 -127 -406 -211 l-308 -153 -167 6
c-372 14 -957 38 -958 39 -1 1 -4 102 -6 224 l-6 221 55 7 c38 5 63 15 86 34
18 16 61 43 97 61 237 119 452 361 629 710 89 173 113 259 118 410 3 89 0 140
-10 178 -10 39 -11 55 -3 57 6 2 100 29 208 59 188 52 319 74 440 73 65 -1 98
50 72 112 -34 80 -215 66 -618 -48 -165 -47 -216 -54 -216 -31 0 5 -34 36 -76
69 -92 75 -248 152 -363 180 -157 39 -344 25 -501 -37 -219 -87 -429 -281
-540 -499 -17 -35 -32 -63 -33 -63 -2 0 -65 -9 -142 -20 -77 -11 -178 -20
-223 -20 -98 0 -144 -17 -162 -60 -22 -53 13 -131 65 -144 25 -7 85 19 85 36
0 4 24 8 53 8 54 0 221 17 247 25 13 4 15 -21 15 -183 0 -162 3 -198 23 -274
53 -199 116 -314 246 -444 55 -55 109 -99 138 -112 29 -14 53 -33 63 -51 11
-22 25 -32 50 -37 33 -6 35 -9 35 -44 l0 -38 -122 5 c-251 11 -478 -43 -736
-173 -90 -46 -180 -95 -200 -110 l-36 -28 -420 13 c-565 16 -1645 25 -1831 14
-82 -5 -151 -8 -153 -7 -1 1 -10 71 -18 155 -12 109 -17 300 -21 654 -2 307
-8 510 -14 525 -17 40 -88 93 -119 86 -91 -20 -241 -39 -485 -61 -154 -14
-379 -37 -500 -51 -478 -54 -502 -56 -1173 -61 -581 -5 -660 -3 -815 13 -95
11 -216 19 -270 19 -93 0 -100 -1 -119 -25 -21 -26 -21 -33 1 -255 6 -60 18
-217 26 -348 9 -131 25 -317 35 -414 11 -97 18 -178 16 -181 -3 -2 -168 -7
-368 -10 -350 -5 -631 5 -788 28 -36 5 -98 14 -138 20 -140 20 -306 95 -530
239 -146 94 -258 156 -394 221 l-116 55 -7 132 c-9 154 -5 163 60 163 128 0
385 104 507 204 133 110 235 269 279 436 19 70 23 110 22 225 -1 176 -20 255
-102 420 -157 313 -417 557 -671 631 -88 25 -297 26 -390 0 -388 -104 -650
-373 -727 -744 -30 -147 -4 -432 55 -602 42 -119 141 -289 203 -346 148 -138
406 -263 543 -264 60 0 57 12 65 -366 4 -192 6 -351 3 -354 -2 -3 -297 -3
-655 -1 -1408 7 -2342 -61 -2983 -219 -368 -91 -594 -197 -736 -349 -82 -86
-111 -145 -116 -236 -4 -82 12 -130 74 -212 120 -159 357 -264 894 -398 881
-220 1649 -520 2041 -796 125 -88 337 -296 431 -424 88 -119 179 -271 220
-370 31 -75 33 -87 33 -195 -1 -136 -13 -169 -103 -276 -94 -111 -196 -154
-493 -206 -120 -21 -164 -23 -419 -22 -382 0 -637 28 -1002 110 -179 39 -494
128 -614 172 -70 26 -454 184 -699 287 -210 89 -637 241 -809 290 -268 75
-493 126 -711 160 -55 8 -113 18 -130 20 -120 19 -421 35 -667 35 -612 0
-1051 -35 -1773 -141 -148 -22 -376 -55 -505 -74 -361 -53 -553 -82 -817 -125
-134 -22 -352 -58 -485 -80 -463 -75 -678 -101 -871 -103 -118 -2 -130 0 -142
18 -36 52 -47 57 -114 53 -57 -4 -67 -8 -92 -36 -54 -60 -31 -133 52 -166 69
-28 239 -39 417 -26 238 16 378 35 1077 150 481 79 522 85 990 154 967 143
1172 169 1580 197 236 17 1037 18 1185 1 621 -69 1118 -210 1905 -539 417
-175 583 -239 740 -287 574 -173 1067 -246 1589 -233 174 4 252 11 366 30 349
62 491 136 620 327 56 83 67 108 79 187 26 171 4 300 -80 468 -143 284 -372
556 -640 757 -372 281 -1175 602 -2059 823 -544 136 -778 233 -869 359 -61 86
-51 155 36 242 202 201 644 335 1403 424 581 68 1291 96 2225 86 346 -4 630
-8 632 -9 1 -2 5 -125 9 -274 7 -266 7 -271 -14 -306 -12 -19 -22 -49 -22 -66
0 -18 -25 -123 -56 -234 -65 -238 -122 -516 -166 -810 -27 -184 -31 -241 -32
-425 l-1 -214 28 -24 c35 -30 68 -31 103 -1 l28 24 -3 149 c-3 189 28 453 95
814 28 152 103 460 115 474 4 5 28 -31 52 -80 185 -369 273 -737 246 -1027 -9
-92 -8 -103 9 -127 27 -36 89 -40 119 -8 18 19 24 44 33 130 34 340 -94 819
-330 1228 l-37 65 -6 363 -6 362 137 0 c161 0 453 -19 822 -54 461 -43 599
-49 1006 -44 l382 6 5 -37 c23 -143 37 -569 22 -663 -5 -37 -14 -52 -41 -73
-19 -14 -34 -32 -34 -40 0 -19 -122 -198 -224 -329 -112 -143 -323 -373 -429
-466 -103 -90 -121 -121 -108 -181 13 -56 32 -73 78 -70 21 1 79 0 128 -1 401
-13 1015 6 1820 57 992 62 1399 76 1713 56 342 -22 498 -50 813 -146 276 -85
271 -84 309 -47 59 60 28 118 -80 147 -36 9 -120 35 -187 56 -574 182 -1000
197 -2578 94 -214 -13 -429 -25 -843 -45 -331 -16 -720 -23 -825 -16 l-97 8
124 126 c175 178 368 417 484 600 35 55 54 74 75 79 15 3 43 24 63 46 l34 41
418 7 c229 4 543 12 697 18 547 21 946 32 1432 38 528 7 532 6 580 -44 15 -15
34 -23 57 -23 34 0 36 -3 249 -322 264 -397 437 -688 437 -737 0 -59 54 -101
107 -84 38 12 66 67 58 112 -15 83 -195 389 -479 816 -256 385 -299 445 -322
445 -17 0 -17 8 1 40 17 30 19 136 5 300 -5 63 -11 132 -12 154 l-3 38 420 5
c419 5 1287 -8 1800 -27 149 -6 482 -19 740 -30 259 -11 485 -20 503 -20 l32
0 0 -77 c0 -43 -7 -170 -16 -283 -8 -113 -19 -254 -23 -315 -9 -118 4 -77
-228 -735 -206 -588 -196 -555 -181 -586 35 -74 122 -63 152 18 66 180 319
905 347 996 3 7 42 -45 88 -117 186 -293 297 -436 501 -645 222 -227 431 -396
492 -396 39 0 78 40 78 80 0 36 -14 51 -134 139 -183 134 -422 376 -583 593
-158 211 -343 504 -343 542 0 10 -7 33 -16 51 -14 30 -14 50 0 220 9 103 19
259 23 346 6 154 7 159 27 159 12 0 179 -7 371 -15 446 -18 1054 -34 1398 -36
147 -1 269 -5 272 -9 2 -4 12 -58 21 -121 9 -62 31 -187 49 -278 32 -160 32
-165 15 -195 -10 -17 -25 -57 -34 -89 -14 -48 -15 -65 -5 -94 14 -44 9 -74
-46 -293 -60 -241 -132 -435 -301 -820 -91 -207 -96 -229 -60 -264 32 -33 76
-34 109 -4 36 34 285 627 350 833 36 115 96 359 116 472 l17 96 51 -79 c27
-43 108 -180 178 -304 190 -337 256 -446 344 -568 87 -122 105 -140 264 -259
121 -92 150 -101 192 -58 30 29 33 74 8 103 -10 10 -63 53 -118 95 -55 41
-117 92 -137 112 -54 54 -182 247 -288 435 -270 477 -367 637 -440 730 -23 29
-33 63 -59 195 -17 88 -35 194 -41 235 -6 41 -13 85 -16 98 l-4 22 725 0 725
0 -6 -44 c-6 -39 -3 -48 19 -70 47 -47 80 -35 199 71 l49 43 329 0 330 0 0
-87 c0 -59 -4 -91 -14 -102 -8 -9 -66 -171 -129 -361 -186 -558 -363 -1025
-483 -1279 -52 -110 -56 -123 -45 -149 20 -48 77 -65 119 -36 65 45 305 646
547 1366 l77 227 24 -11 c15 -7 41 -41 66 -87 102 -189 204 -368 367 -641 96
-162 228 -387 292 -499 65 -112 127 -215 138 -227 27 -31 90 -33 116 -4 45 49
48 42 -325 670 -229 384 -288 488 -443 770 -61 113 -110 196 -125 213 -13 14
-16 43 -17 125 l0 107 969 0 969 0 17 -53 18 -53 -29 -58 c-29 -58 -37 -97
-144 -656 -34 -177 -117 -575 -165 -795 -55 -249 -56 -258 -33 -288 25 -34 79
-41 112 -15 25 20 31 44 112 423 72 334 111 532 169 843 28 150 53 277 55 284
3 8 13 8 42 -2 45 -15 58 -36 180 -278 155 -309 252 -531 403 -920 50 -128 98
-252 108 -277 30 -76 99 -89 146 -27 27 36 29 29 -147 472 -208 525 -472 1069
-602 1240 -28 36 -82 162 -73 171 2 1 235 2 518 3 283 1 526 2 540 2 14 1 242
3 507 5 l482 5 3 -98 c3 -86 1 -104 -20 -152 -13 -29 -21 -62 -19 -73 3 -11
-7 -63 -23 -116 -119 -403 -217 -947 -235 -1307 -8 -159 4 -252 37 -277 30
-23 70 -23 99 1 23 19 24 23 25 193 2 185 22 371 75 678 47 276 122 590 140
590 11 0 73 -122 128 -253 58 -137 105 -281 137 -427 25 -114 28 -143 28 -331
1 -189 3 -209 20 -228 24 -26 76 -28 106 -3 29 23 38 83 39 250 2 319 -114
719 -312 1071 l-54 96 -7 194 -7 194 1068 -6 c587 -4 1078 -10 1091 -13 21 -6
22 -11 22 -107 0 -75 -4 -105 -15 -117 -8 -9 -55 -138 -104 -286 -179 -543
-378 -1074 -496 -1323 -72 -151 -75 -172 -33 -211 43 -40 97 -19 137 55 111
206 383 925 576 1522 3 10 10 10 30 1 17 -8 48 -53 102 -152 114 -209 203
-364 428 -741 111 -187 228 -387 260 -444 71 -127 84 -141 133 -141 48 0 76
28 76 73 -1 32 -150 299 -373 667 -134 221 -456 784 -543 950 -14 27 -18 57
-18 142 l0 108 73 0 c136 0 782 -30 862 -40 132 -16 160 -14 184 16 34 44 20
104 -28 123 -53 21 -395 43 -853 57 l-228 7 0 101 c0 99 -10 313 -30 691 l-10
189 27 28 c15 15 32 28 38 28 37 0 204 108 318 205 l65 56 115 -61 c62 -33
124 -60 136 -60 26 0 81 51 81 74 0 36 -26 69 -74 93 -28 14 -70 36 -93 50
l-42 24 60 71 c163 195 236 357 227 507 -4 64 -10 87 -35 127 -139 228 -696
258 -1146 62 l-68 -29 -82 74 c-107 97 -152 127 -192 127 -43 0 -75 -32 -75
-75 0 -39 4 -44 113 -133 42 -34 77 -66 77 -70 0 -5 -23 -24 -52 -42 -252
-164 -462 -430 -476 -606 -6 -75 24 -182 68 -243 67 -92 292 -222 455 -262 95
-23 283 -32 356 -16 l37 8 7 -118 c4 -65 8 -131 9 -148 l1 -30 -70 -6 c-85 -8
-186 -38 -432 -128 -328 -119 -488 -191 -706 -313 -116 -66 -138 -85 -139
-125 l-1 -33 -409 0 -408 0 0 29 c0 17 -5 256 -11 532 -6 276 -8 513 -5 525 6
21 12 24 59 24 67 0 218 41 312 84 242 112 417 320 474 565 33 139 26 354 -14
482 -6 17 0 19 62 19 91 0 183 23 205 50 26 32 23 76 -8 107 -24 24 -29 25
-82 17 -79 -12 -190 -10 -234 5 -31 10 -48 29 -103 112 -118 178 -296 346
-443 419 -129 64 -305 92 -447 70z m-18288 -256 c135 -28 255 -104 386 -245
132 -141 246 -335 283 -479 23 -88 23 -264 1 -350 -51 -194 -181 -355 -358
-443 -52 -26 -131 -56 -176 -67 -78 -19 -88 -20 -223 -5 -149 15 -177 12 -203
-25 l-15 -21 -78 30 c-90 35 -212 110 -278 171 -150 138 -249 444 -233 719 18
315 233 586 547 690 127 42 229 50 347 25z m18699 -368 c192 -28 439 -96 447
-124 3 -9 18 -51 33 -92 26 -69 28 -87 28 -225 1 -131 -2 -159 -22 -220 -79
-237 -268 -403 -540 -471 -55 -14 -78 -14 -190 -3 -171 17 -181 17 -209 -15
-27 -32 -42 -30 -160 26 -283 133 -416 349 -453 730 -11 111 -1 215 30 314 36
119 -23 107 483 101 333 -3 470 -9 553 -21z m-2781 -166 c198 -20 500 -38 604
-36 l55 1 12 -50 c64 -247 -24 -660 -189 -882 -50 -67 -133 -139 -175 -151
-35 -9 -156 -8 -205 2 -35 6 -38 10 -33 32 7 26 -8 62 -33 81 -9 6 -41 14 -71
18 -93 12 -153 41 -215 102 -96 96 -169 269 -200 473 -25 163 -15 382 20 436
13 20 16 21 122 8 59 -8 198 -23 308 -34z m-2068 -136 c125 -70 415 -242 602
-358 41 -25 90 -49 108 -52 18 -3 33 -12 33 -19 0 -29 -220 -311 -298 -383
-69 -62 -98 -75 -184 -82 -52 -4 -84 -12 -96 -23 -24 -22 -99 -22 -250 -2
-131 17 -232 39 -270 59 -40 21 -89 76 -107 120 -41 97 -57 288 -34 398 19 88
75 185 154 264 63 63 178 152 197 153 4 1 69 -33 145 -75z m6801 -388 c163
-147 262 -228 336 -275 57 -36 112 -71 122 -78 18 -11 17 -13 -11 -37 -16 -14
-47 -38 -68 -52 -35 -25 -38 -26 -55 -10 -25 21 -85 21 -104 -1 -8 -10 -26
-38 -39 -62 -18 -32 -35 -49 -67 -62 -24 -11 -47 -29 -53 -43 -14 -30 -50 -44
-149 -57 -186 -23 -424 53 -577 185 -50 44 -79 117 -69 178 19 116 170 303
356 440 76 56 131 89 140 85 3 -1 110 -96 238 -211z m-10398 123 c21 -85 8
-229 -28 -328 -80 -214 -303 -554 -434 -661 -109 -89 -259 -170 -354 -191
-177 -40 -401 125 -497 365 -38 94 -67 249 -67 358 0 95 15 206 30 221 8 9
139 37 820 177 184 38 373 77 420 88 47 11 88 21 92 21 3 1 12 -22 18 -50z
m1150 -413 c90 -9 209 -16 264 -16 113 0 290 -14 410 -32 l78 -12 -6 -55 c-14
-117 -140 -282 -261 -342 -66 -32 -88 -34 -237 -13 -34 4 -78 -1 -160 -21
-204 -49 -304 -23 -425 110 -106 116 -160 250 -135 333 7 21 21 50 31 64 l20
24 128 -12 c71 -7 203 -20 293 -28z m-5860 -122 c0 -25 6 -60 14 -77 12 -26
16 -115 19 -437 4 -265 11 -457 21 -555 45 -429 57 -648 41 -761 l-7 -51 -536
-6 c-511 -7 -1199 -25 -1712 -47 -129 -5 -371 -10 -536 -10 l-301 0 -7 168
c-9 219 -22 382 -46 572 -39 309 -64 606 -86 1009 l-6 123 28 -6 c131 -27 351
-36 876 -36 712 0 865 8 1423 75 66 8 248 26 405 40 157 14 308 30 335 34 28
5 56 9 63 10 8 1 12 -14 12 -45z m-5467 -811 c75 -34 338 -188 397 -233 25
-19 22 -19 -225 -13 -137 3 -251 6 -252 7 -5 4 -14 276 -9 276 4 0 44 -17 89
-37z m18277 -90 c0 -38 3 -146 7 -240 l6 -173 -354 0 -353 0 108 73 c170 114
394 274 471 337 64 52 87 67 108 69 4 1 7 -29 7 -66z m-4307 -75 c4 -66 7
-174 7 -240 l0 -118 -247 0 -248 0 105 108 c271 278 365 372 371 372 3 0 9
-55 12 -122z m6660 -55 c4 -87 7 -189 7 -227 l0 -69 -507 6 c-280 4 -544 7
-588 7 -98 1 -98 0 93 98 158 81 192 95 481 203 270 101 392 138 457 138 l51
1 6 -157z m-4684 45 c7 -46 26 -139 42 -207 23 -98 27 -126 17 -133 -7 -4
-168 -8 -357 -8 l-344 0 156 105 c86 57 223 154 304 214 82 60 153 110 159
110 6 1 16 -36 23 -81z m-6756 -93 c14 -6 17 -21 17 -96 0 -85 -1 -89 -22 -89
-48 0 -754 31 -768 33 -23 5 101 65 201 97 80 27 197 52 289 64 50 6 262 0
283 -9z m2192 -5 c8 0 15 -37 23 -117 6 -65 9 -119 8 -121 -2 -1 -129 -1 -282
0 l-279 3 175 87 c96 47 200 102 230 122 40 26 63 34 84 31 16 -3 34 -5 41 -5z"/>
<path d="M21108 4555 c-3 -3 -29 -7 -58 -9 -37 -3 -59 -10 -74 -25 -20 -21
-21 -30 -20 -259 1 -130 6 -286 12 -347 56 -559 62 -647 53 -681 -13 -46 3
-83 42 -99 23 -10 42 -9 91 1 33 7 97 15 141 18 369 29 610 50 780 71 375 46
812 85 946 85 65 0 82 3 99 20 29 29 35 66 16 95 -13 19 -14 29 -5 49 9 19 8
45 -5 113 -49 259 -70 711 -40 860 5 27 1 37 -24 63 -30 30 -84 41 -97 21 -3
-6 -16 -6 -33 -1 -51 17 -1808 40 -1824 25z m1503 -172 l296 -6 7 -231 c7
-246 25 -455 51 -574 8 -40 15 -79 15 -86 0 -9 -59 -17 -217 -30 -261 -21
-535 -48 -750 -75 -222 -28 -811 -77 -820 -68 -7 7 -69 666 -78 828 -6 104 -5
131 8 156 11 20 14 43 10 68 l-6 38 594 -6 c327 -4 727 -10 890 -14z"/>
<path d="M11873 6600 c-136 -29 -253 -100 -388 -235 -113 -114 -183 -214 -231
-335 -26 -63 -46 -226 -43 -337 1 -40 -2 -77 -7 -82 -13 -11 -129 -41 -158
-41 -41 0 -80 -41 -80 -85 0 -73 76 -94 203 -55 36 11 66 18 67 17 1 -1 13
-45 28 -97 62 -219 163 -381 287 -461 42 -28 49 -37 49 -65 0 -23 8 -38 26
-53 24 -19 171 -70 245 -85 l26 -6 7 -181 c16 -403 58 -655 165 -990 l31 -96
-29 -64 c-20 -43 -42 -123 -65 -244 -112 -579 -164 -836 -226 -1126 -60 -275
-68 -328 -59 -352 21 -51 89 -64 126 -25 22 24 31 61 122 488 78 367 97 465
155 773 30 159 56 290 58 292 2 2 20 -2 40 -8 42 -13 67 -53 203 -325 143
-289 259 -559 436 -1021 33 -85 67 -163 76 -173 26 -29 87 -24 112 8 12 15 21
36 21 48 0 33 -165 460 -300 776 -74 174 -269 575 -341 703 -29 51 -76 126
-104 167 -41 59 -62 105 -94 203 -47 144 -108 387 -117 463 l-6 52 35 11 c43
14 222 136 377 256 266 206 979 816 1083 926 34 37 35 77 2 113 -46 50 -70 40
-223 -97 -299 -268 -343 -306 -487 -427 -433 -364 -756 -610 -800 -610 -15 0
-22 61 -31 276 l-7 161 68 11 c95 16 168 56 251 137 141 139 264 412 305 676
17 110 6 355 -20 449 -27 97 -26 104 7 119 148 69 363 131 517 151 102 13 135
33 135 82 0 74 -37 93 -159 78 -131 -16 -273 -53 -422 -110 -190 -73 -169 -74
-228 14 -98 145 -237 263 -368 312 -74 28 -199 39 -270 24z m226 -179 c65 -25
177 -115 240 -195 48 -60 76 -105 69 -111 -3 -2 -116 -53 -463 -208 -250 -111
-558 -236 -567 -231 -23 14 4 249 36 320 37 80 120 197 188 265 171 169 336
222 497 160z m406 -531 c22 -83 30 -274 17 -376 -24 -174 -112 -407 -199 -525
-104 -141 -196 -184 -343 -159 l-70 12 0 33 c0 56 -29 81 -111 93 -95 14 -167
51 -226 116 -72 79 -153 258 -168 372 l-7 51 88 33 c161 60 394 160 894 385
52 24 98 40 101 37 4 -4 14 -36 24 -72z"/>
<path d="M11071 6413 c-8 -3 -71 -43 -140 -88 -164 -106 -309 -195 -318 -195
-5 0 -21 7 -36 15 -92 48 -293 80 -432 70 -286 -22 -541 -121 -753 -292 -145
-118 -248 -273 -274 -415 l-12 -67 -46 -17 c-99 -36 -186 -77 -207 -97 -32
-28 -31 -80 2 -112 32 -33 52 -32 146 10 102 45 109 45 109 -3 0 -55 37 -189
68 -247 52 -97 138 -162 261 -199 67 -20 254 -46 386 -55 l100 -6 7 -90 c30
-384 40 -653 36 -950 -4 -274 -7 -324 -21 -345 -9 -14 -46 -117 -83 -230 -175
-538 -417 -1185 -526 -1402 -55 -111 -59 -148 -23 -183 28 -29 61 -32 94 -8
65 45 317 671 549 1363 41 124 76 226 78 228 1 2 14 -4 28 -13 15 -10 64 -87
122 -193 116 -212 227 -403 424 -732 80 -135 177 -299 214 -365 96 -168 109
-185 152 -185 40 0 84 36 84 70 0 12 -8 38 -18 58 -30 59 -205 361 -330 567
-134 223 -303 515 -427 740 -49 88 -104 185 -123 215 l-35 55 2 365 c1 201 -3
446 -10 545 -6 99 -12 225 -14 280 -2 55 -6 128 -10 163 -7 59 -6 64 16 80 13
9 38 22 56 29 88 32 196 133 337 314 324 415 399 638 287 857 -11 22 -25 43
-31 47 -18 11 -11 32 16 44 39 17 345 216 372 241 28 26 30 89 5 113 -21 18
-62 28 -82 20z m-693 -375 c67 -12 83 -1 -228 -165 -94 -50 -332 -161 -465
-218 -133 -57 -383 -147 -395 -143 -5 2 7 37 28 78 72 145 255 293 468 379
204 82 405 106 592 69z m267 -163 c27 -43 30 -57 30 -124 -1 -88 -22 -148 -99
-278 -70 -117 -258 -364 -338 -444 -88 -88 -128 -109 -211 -109 -51 0 -68 -4
-82 -20 -23 -25 -73 -26 -245 -5 -241 30 -313 57 -367 138 -33 49 -60 150 -65
242 l-3 49 120 43 c366 132 729 297 1100 502 61 33 115 59 120 57 6 -1 24 -24
40 -51z"/>
<path d="M4094 6118 c-16 -12 -62 -52 -102 -89 l-73 -66 -162 -6 c-241 -7
-447 -56 -662 -156 -299 -140 -594 -423 -666 -639 -40 -119 -11 -262 71 -356
18 -20 29 -40 24 -45 -42 -35 -117 -92 -151 -114 -56 -36 -77 -68 -68 -107 8
-37 39 -60 81 -60 31 0 128 62 235 151 26 22 51 39 57 39 5 0 41 -15 78 -34
145 -71 245 -90 434 -84 l140 4 0 -30 c0 -17 7 -128 16 -246 10 -144 15 -346
15 -609 0 -359 -2 -395 -18 -413 -9 -10 -63 -157 -119 -326 -168 -508 -352
-1001 -461 -1237 -94 -202 -90 -191 -72 -223 22 -39 59 -55 98 -41 28 10 40
27 91 133 32 66 79 171 104 232 95 232 299 793 401 1104 21 63 39 118 42 122
2 4 14 2 27 -3 16 -8 58 -73 127 -198 114 -205 324 -565 429 -736 37 -60 116
-195 175 -300 118 -209 145 -245 186 -245 41 0 79 35 79 75 0 33 -144 294
-337 610 -104 171 -237 399 -357 615 -54 96 -129 229 -167 295 l-68 120 2 375
c1 347 -13 759 -31 925 -8 66 -7 70 17 93 14 14 55 38 90 54 168 77 431 307
578 507 232 313 229 568 -7 680 l-59 28 54 52 c63 60 73 86 51 129 -25 48 -74
56 -122 20z m-359 -327 c-74 -70 -312 -278 -515 -450 -448 -381 -545 -461
-556 -461 -34 0 -94 108 -94 171 0 119 191 352 407 497 93 63 252 139 366 176
160 52 423 97 392 67z m361 -46 c73 -36 97 -72 91 -140 -11 -130 -113 -293
-296 -476 -69 -69 -152 -145 -184 -169 -55 -41 -58 -42 -76 -26 -13 12 -32 16
-57 14 -35 -3 -43 -9 -77 -61 -26 -40 -50 -64 -74 -73 -19 -8 -42 -28 -51 -45
-10 -18 -31 -34 -52 -40 -60 -19 -247 -22 -326 -6 -76 16 -177 55 -172 67 2 3
62 55 133 115 72 60 175 147 230 194 55 47 127 108 160 136 107 89 438 381
525 464 83 79 86 81 127 77 24 -2 68 -16 99 -31z"/>
<path d="M5477 6079 c-287 -39 -572 -247 -729 -530 -42 -76 -44 -78 -92 -89
-27 -6 -82 -13 -123 -17 -96 -8 -133 -30 -133 -79 0 -78 41 -102 149 -85 104
16 99 18 90 -36 -18 -110 -6 -292 27 -428 56 -225 210 -447 373 -537 33 -18
61 -38 61 -44 0 -16 31 -40 65 -51 l30 -10 6 -249 c9 -359 -23 -1043 -52
-1129 -6 -16 -59 -172 -119 -345 -59 -173 -138 -398 -175 -500 -110 -304 -117
-329 -95 -370 5 -10 24 -23 41 -29 27 -9 38 -8 63 7 25 15 36 33 60 102 16 47
56 159 88 250 33 91 100 282 149 425 49 143 91 266 94 274 4 9 26 -18 58 -70
138 -219 281 -420 385 -539 223 -255 564 -550 637 -550 28 0 64 27 76 56 9 26
-11 94 -29 94 -5 0 -56 35 -113 77 -123 91 -403 367 -512 505 -168 213 -406
583 -407 633 0 11 -6 32 -14 46 -11 22 -11 52 0 185 27 329 35 570 28 856 l-7
286 49 7 c54 8 104 30 104 45 0 5 35 27 78 49 217 110 383 281 561 579 143
242 191 380 196 567 l3 120 39 7 c209 41 338 74 359 90 49 39 18 138 -44 138
-12 0 -90 -15 -174 -34 -84 -19 -173 -37 -198 -41 -43 -6 -46 -5 -64 27 -48
80 -170 185 -283 242 -163 82 -349 117 -506 95z m293 -186 c47 -13 116 -41
153 -61 75 -40 193 -140 180 -152 -12 -11 -217 -39 -613 -85 -227 -26 -379
-48 -495 -70 -38 -7 -72 -12 -74 -9 -16 15 138 187 226 252 203 149 399 189
623 125z m415 -412 c8 -48 -10 -173 -35 -244 -68 -195 -246 -479 -396 -633
-96 -99 -256 -195 -382 -230 -55 -15 -65 -15 -135 0 -222 50 -395 287 -437
603 -13 98 -10 216 9 299 l12 52 132 25 c151 29 300 50 757 107 179 22 345 44
370 49 90 18 97 15 105 -28z"/>
<path d="M7400 5630 c-107 -22 -201 -58 -310 -117 -225 -121 -344 -236 -399
-384 -10 -26 -31 -34 -166 -54 -78 -13 -111 -83 -64 -134 20 -22 28 -23 103
-18 45 3 93 9 109 13 20 5 27 3 27 -9 0 -31 81 -175 141 -250 66 -82 183 -170
264 -198 43 -15 231 -19 278 -6 l28 8 -8 -93 c-12 -143 -9 -561 5 -673 37
-288 56 -416 88 -577 32 -166 34 -179 19 -202 -34 -52 -56 -181 -35 -202 20
-20 -71 -396 -142 -588 -60 -165 -173 -438 -272 -659 -30 -66 -27 -97 11 -127
34 -26 66 -25 97 3 32 28 200 413 308 706 51 140 137 460 158 591 17 108 18
108 44 69 38 -57 118 -193 251 -429 162 -286 153 -272 210 -360 82 -127 172
-243 222 -286 66 -55 203 -158 230 -172 54 -29 113 9 113 72 0 39 -7 46 -175
173 -130 99 -207 206 -440 618 -199 350 -266 463 -345 575 l-67 95 -31 165
c-89 469 -121 875 -91 1161 14 144 15 145 138 151 91 4 108 9 177 42 144 72
291 241 335 388 17 56 20 87 17 161 -5 97 -27 159 -81 239 -28 41 -26 48 13
48 15 0 39 9 54 21 33 26 36 84 6 117 -24 25 -57 28 -161 11 l-69 -12 -111 58
c-61 31 -134 64 -163 71 -70 19 -214 16 -316 -6z m310 -163 c40 -17 49 -12
-115 -62 -66 -21 -205 -69 -310 -107 -184 -69 -360 -128 -380 -128 -20 0 84
94 155 139 139 89 279 149 402 170 72 13 205 7 248 -12z m253 -173 c19 -21 50
-62 68 -92 59 -98 51 -223 -20 -331 -51 -76 -140 -159 -207 -192 -67 -33 -62
-33 -239 -13 -35 4 -83 -2 -162 -20 -121 -28 -164 -31 -232 -15 -95 21 -229
149 -287 274 -37 79 -38 78 89 115 61 18 207 68 322 110 261 96 557 190 627
199 4 1 22 -15 41 -35z"/>
</g>
</svg>
