<?xml version="1.0" encoding="utf-8"?>
<!-- Generator: Adobe Illustrator 25.2.0, SVG Export Plug-In . SVG Version: 6.00 Build 0)  -->
<svg version="1.1" id="Layer_1" xmlns="http://www.w3.org/2000/svg" xmlns:xlink="http://www.w3.org/1999/xlink" x="0px" y="0px"
	 viewBox="0 0 4000 797" style="enable-background:new 0 0 4000 797;" xml:space="preserve">
<style type="text/css">
	.st0{fill:#1A1A1A;}
</style>
<g transform="translate(0.000000,797.000000) scale(0.100000,-0.100000)">
	<path class="st0" d="M3618.7,6787c-304.1-23.3-591.8-226.4-702.4-495.9l-23.3-57.9l-49.2-3.5c-65.7-5.2-93.3-28.5-93.3-81.2
		c0-51,22.5-76,68.3-76l35.4-0.9v-99.4c0.9-221.2,51-406.1,153.8-566.8c73.4-114,171.9-195.3,324.9-267
		c81.2-38.9,149.5-59.6,226.4-70l44.9-5.2l5.2-191.8c3.5-104.5,9.5-381,13.8-614.3c6.9-410.4,6.9-424.2-9.5-450.1
		c-8.6-14.7-16.4-40.6-16.4-56.2c0-16.4-12.1-70-25.9-120.1c-82.1-285.1-137.4-553.8-178-875.2c-17.3-138.2-21.6-200.4-19-318.8
		l2.6-146.9l25.1-21.6c20.7-17.3,31.1-20.7,56.2-16.4c58.8,9.5,60.5,13.8,63.9,221.2c4.3,197.9,26.8,382.8,83.8,673.9
		c32,168.5,87.3,380.2,96.8,375c27.6-17.3,152.1-318,192.7-464.8c46.7-171.9,58.8-272.2,53.6-436.3c-4.3-140-4.3-141.7,16.4-161.6
		c24.2-25.1,70.8-27.6,98.5-5.2c11.2,8.6,21.6,31.1,26.8,53.6c12.1,64.8,8.6,291.2-5.2,380.2c-38,231.6-129.6,488.2-254.9,717.1
		l-50.1,90.7l-5.2,319.7c-3.5,176.3-9.5,488.2-14.7,694.7c-5.2,253.2-5.2,378.4,0.9,385.3c4.3,6,37.2,13,71.7,15.6
		c126.1,10.4,303.3,84.7,412.1,171.9c103.7,84.7,192.7,216,231.6,344.7c34.6,112.3,40.6,279.9,13.8,403.5l-6,29.4l94.2-6
		c88.1-5.2,95-5.2,113.2,12.1c38,36.3,34.6,89-7.8,116.6c-12.1,7.8-65.7,16.4-140.8,22.5c-66.5,5.2-121,11.2-121.8,11.2
		c-63.9,138.2-223.8,336.1-348.2,429.4C3937.5,6749,3776,6799.1,3618.7,6787z M3790.7,6624.6c139.1-36.3,293.8-161.6,412.1-334.4
		c18.1-26.8,33.7-51,33.7-54.4c0-2.6-8.6-2.6-19,0c-11.2,1.7-128.7,12.1-261.8,22.5c-199.6,15.6-283.4,17.3-475.2,13.8
		c-127.9-3.5-273.9-9.5-323.1-14.7c-49.2-5.2-90.7-7.8-92.4-6c-9.5,9.5,71.7,124.4,130.5,184c95.9,95.9,192.7,151.2,328.3,185.8
		C3599.7,6640.1,3724.1,6641.8,3790.7,6624.6z M3988.5,6106.2c360.3-28.5,330.1-22.5,349.1-76c12.1-36.3,15.6-71.7,15.6-178.8
		c-0.9-126.1-1.7-138.2-25.1-198.7c-72.6-190.1-232.4-329.2-439.8-381c-72.6-18.1-77.8-18.1-193.5-6c-127,13.8-163.3,8.6-181.4-23.3
		c-19-33.7-230.7,77.8-320.5,167.6c-118.4,119.2-197.9,362-190.1,583.2c0.9,50.1,5.2,92.4,8.6,95.9c5.2,6,206.5,26.8,313.6,32.8
		C3503.8,6132.1,3737.1,6126,3988.5,6106.2z"/>
	<path class="st0" d="M12937.9,6676.4c-62.2-21.6-145.2-65.7-190.9-100.2c-57.9-44.9-153.8-149.5-198.7-216.9
		c-99.4-148.6-120.1-217.7-123.6-421.6l-1.7-99.4l-64.8-19c-35.4-10.4-75.2-19-88.1-19c-50.1-1.7-78.6-84.7-41.5-121.8
		c27.6-27.6,57-29.4,140-9.5c42.3,11.2,78.6,18.1,79.5,16.4s7.8-28.5,15.6-59.6c46.7-184,143.4-346.5,248-413.9
		c34.6-22.5,43.2-32.8,47.5-59.6c2.6-18.1,12.1-38.9,19.9-45.8c14.7-13,147.7-58.8,206.5-70.8l27.6-6l5.2-127
		c17.3-377.6,51.8-591,143.4-877.8l27.6-85.5l-22.5-48.4c-26.8-57.9-33.7-89-95-412.1c-59.6-309.3-93.3-476.1-159.8-786.2
		c-29.4-133.9-52.7-256.6-52.7-273c0-77.8,119.2-93.3,141.7-18.1c2.6,8.6,37.2,171.1,77.8,361.2c64.8,306.7,108,521,169.3,851.9
		l19,100.2l31.1-10.4c26.8-9.5,38-22.5,70-79.5c133.1-237.6,360.3-755.1,506.3-1151.7c27.6-76,45.8-95,89.9-95
		c40.6,0,70,28.5,70,67.4c0,42.3-171.1,483.8-298.1,766.4c-130.5,292.9-293.8,602.2-365.5,692.9c-24.2,30.2-58.8,127.9-108.9,305.9
		c-14.7,53.6-57,243.6-57,258.3c0,5.2,13.8,15.6,32,22.5c133.1,56.2,709.3,519.3,1183.7,952.1c91.6,82.9,97.6,90.7,97.6,121.8
		c0,51-51,89-95.9,70.8c-11.2-4.3-102.8-81.2-202.2-171.1c-399.2-357.7-894.2-757.7-1012.6-818.2l-26.8-13l-5.2,109.7
		c-2.6,60.5-7.8,145.2-10.4,188.4l-4.3,78.6l54.4,6c72.6,6.9,133.9,38.9,203,102.8c107.1,100.2,182.3,232.4,239.3,424.2
		c41.5,136.5,48.4,184.9,48.4,337c0,109.7-3.5,143.4-22.5,222.9c-12.1,51.8-20.7,95.9-19.9,96.8c5.2,4.3,181.4,70.8,216.9,82.9
		c63.9,19.9,87.3,84.7,45.8,125.3c-32,32-70,27.6-207.4-25.9c-66.5-25.9-121-45.8-121.8-44.9c-105.4,165.9-227.2,280.8-350.8,331.8
		c-44.9,18.1-71.7,23.3-149.5,25.9C13012.2,6698,12994.9,6696.3,12937.9,6676.4z M13215.2,6518.3c35.4-17.3,79.5-50.1,116.6-86.4
		c63.9-62.2,127.9-148.6,116.6-158.1c-19.9-19-712.8-320.5-843.3-367.2l-33.7-12.1l5.2,109.7c4.3,108,5.2,109.7,41.5,181.4
		c65.7,127.9,173.7,248,280.8,310.2C13008.7,6560.6,13115,6567.5,13215.2,6518.3z M13541.8,6058.6c17.3-69.1,19-94.2,15.6-214.3
		c-4.3-125.3-6.9-143.4-36.3-239.3c-57-184.9-135.6-324.9-222-393.1c-57.9-44.9-91.6-55.3-171.9-49.2c-87.3,6.9-95,10.4-95,44.9
		c0,47.5-21.6,64.8-97.6,77.8c-37.2,6-83.8,19.9-104.5,30.2c-59.6,28.5-121.8,101.1-165,192.7c-42.3,89.9-81.2,218.6-68.3,229.8
		c4.3,4.3,74.3,33.7,154.7,65.7c124.4,49.2,556.4,237.6,712.8,310.2c25.9,12.1,50.1,22.5,52.7,22.5
		C13520.2,6136.4,13531.5,6101,13541.8,6058.6z"/>
	<path class="st0" d="M12175.8,6453.5c-68.3-44.9-155.5-99.4-193.5-122.7l-68.3-41.5l-39.7,15.6c-196.1,76.9-466.6,73.4-688.6-9.5
		c-109.7-40.6-164.2-68.3-258.3-131.3c-74.3-50.1-184-152.1-220.3-204.8c-35.4-51-76.9-146-89.9-206.5l-13.8-62.2l-44.9-15.6
		c-89-31.1-168.5-72.6-183.2-95c-19-28.5-11.2-76.9,15.6-95.9c19.9-13.8,75.2-17.3,89-6c6.9,6.9,112.3,53.6,120.1,53.6
		c0.9,0,5.2-18.1,7.8-40.6c9.5-63.1,38-164.2,57.9-203c29.4-58.8,97.6-122.7,155.5-149.5c65.7-29.4,178.8-52.7,314.5-64.8
		c57-5.2,120.1-11.2,140-13.8l35.4-4.3l5.2-49.2c22.5-212.5,33.7-477.8,32.8-782.8c0-295.5-1.7-337-13.8-349.1
		c-7.8-7.8-39.7-94.2-70.8-191.8c-151.2-470-389.7-1099.9-483-1275.3c-28.5-52.7-27.6-76.9,3.5-108c51.8-51.8,93.3-30.2,147.7,78.6
		c95,190.1,287.7,696.4,432.9,1136.2c25.1,76,46.7,140,47.5,140.8c0.9,1.7,9.5,0.9,18.1-1.7c10.4-3.5,44.1-54.4,84.7-128.7
		c108-196.1,221.2-390.5,371.5-641.1c76.9-127.9,169.3-286.9,206.5-353.4c37.2-65.7,75.2-127,83.8-135.6
		c24.2-24.2,77.8-21.6,101.1,3.5c34.6,36.3,25.9,65.7-64.8,225.5c-45.8,81.2-122.7,211.7-170.2,290.3
		c-152.1,253.2-246.2,413.9-378.4,652.3c-71.7,128.7-138.2,245.4-148.6,259.2c-18.1,25.1-18.1,33.7-18.1,371.5
		c-0.9,323.1-13,658.4-30.2,807.8c-7.8,63.9-6.9,64.8,15.6,83.8c13,10.4,33.7,21.6,46.7,24.2c67.4,15.6,190.1,136.5,332.6,328.3
		c203.9,272.2,270.4,430.3,244.5,575.4c-9.5,51.8-41.5,127-65.7,154.7c-9.5,11.2-2.6,18.1,51,51c154.7,95,282.5,182.3,295.5,203
		c19,28.5,11.2,76.9-15.6,95.9C12334.8,6547.7,12306.3,6538.2,12175.8,6453.5z M11691.1,6204.7l56.2-10.4l-68.3-38
		c-99.4-56.2-450.1-227.2-560.7-273.9c-100.2-42.3-343.9-133.1-348.2-130.5c-4.3,3.5,19.9,51.8,52.7,105.4
		c92.4,149.5,342.1,300.7,563.3,339.6C11487.2,6215,11611.6,6218.5,11691.1,6204.7z M11944.3,6044.8
		c43.2-89.9,10.4-208.2-107.1-383.6c-77.8-115.8-199.6-271.3-257.5-329.2c-70-69.1-107.1-88.1-177.1-89c-38-0.9-58.8-5.2-70-15.6
		c-21.6-19.9-94.2-20.7-233.3-2.6c-121.8,16.4-168.5,26.8-214.3,50.1c-47.5,23.3-63.1,38.9-86.4,84.7
		c-33.7,65.7-61.3,232.4-38.9,232.4c21.6,0,329.2,115.8,463.1,173.7c158.1,68.3,458.8,218.6,591,294.6
		C11907.1,6113.9,11910.6,6113.9,11944.3,6044.8z"/>
	<path class="st0" d="M33952.2,6357.6c-95.9-25.9-210-77.8-281.7-129.6c-51-36.3-165-148.6-200.4-197l-17.3-22.5l-57,14.7
		c-38,9.5-68.3,24.2-89,42.3c-52.7,45.8-116.6,31.1-131.3-30.2c-13.8-54.4,64.8-129.6,156.4-150.3c25.9-6,47.5-12.1,47.5-13
		c0-1.7-10.4-37.2-22.5-78.6c-40.6-137.4-38-344.7,6.9-521.9c43.2-171.9,139.1-335.2,246.2-419c121-95,241.9-154.7,367.2-179.7
		c36.3-7.8,74.3-13.8,84.7-13.8c15.6,0,17.3-5.2,17.3-53.6c0-30.2,2.6-103.7,6-164.2l5.2-110.6h-21.6c-14.7,0-44.1-19-85.5-53.6
		c-107.1-89-277.3-212.5-514.9-373.3l-226.4-152.1l-474.3-6l-474.3-5.2l-26.8,111.5c-46.7,195.3-63.1,322.3-75.2,597.9l-6,122.7
		h29.4c143.4,0,304.1,140,400.9,349.1c26.8,59.6,65.7,173.7,94.2,277.3c22.5,81.2,27.6,337.8,8.6,423.4c-7.8,36.3-13,66.5-11.2,68.3
		c0.9,0.9,31.1,10.4,66.5,22.5c96.8,32,116.6,48.4,120.1,96.8c2.6,34.6-0.9,42.3-20.7,57.9c-30.2,24.2-45.8,23.3-136.5-9.5
		c-42.3-15.6-78.6-24.2-80.4-19c-1.7,4.3-26.8,44.9-57,89.9c-95,145.2-213.4,253.2-325.7,298.9c-82.1,33.7-207.4,38.9-295.5,12.1
		c-147.7-44.1-286.8-151.2-400-309.3l-32.8-46.7l-61.3,6c-33.7,3.5-76.9,12.1-95.9,19.9c-70,26.8-118.4,11.2-129.6-42.3
		c-13.8-60.5,45.8-106.3,149.5-116.6l63.9-6l-5.2-33.7c-26.8-165-23.3-313.6,8.6-473.5c42.3-208.2,142.6-386.2,261.8-467.4
		c33.7-22.5,44.1-34.6,44.1-51.8c0-52.7,54.4-82.9,214.3-120.1l44.9-10.4v-40.6c0-22.5,2.6-93.3,5.2-157.2l6-115.8l-156.4-114
		c-214.3-157.2-344.7-245.4-507.2-343l-138.2-82.9h-359.4h-359.4l-6,192.7c-3.5,105.4-9.5,255.7-14.7,334.4
		c-5.2,78.6-8.6,165.9-8.6,194.4s-4.3,78.6-9.5,111.5c-8.6,57.9-8.6,60.5,11.2,75.2c11.2,9.5,44.1,27.6,72.6,40.6
		c28.5,13.8,76.9,47.5,107.1,76c63.9,58.8,202.2,228.1,277.3,341.3c56.2,82.9,54.4,82.1,119.2,58.8c65.7-24.2,122.7,4.3,122.7,62.2
		c0,38.9-23.3,64.8-71.7,77.8c-19.9,6-37.2,11.2-38.9,13c-0.9,0.9,7.8,32,20.7,69.1c19.9,59.6,22.5,78.6,19,150.3
		c-2.6,69.1-6.9,90.7-29.4,138.2c-76.9,161.6-259.2,250.6-516.7,250.6c-154.7,0-360.3-46.7-479.5-108c-18.1-9.5-31.1-5.2-114,32
		c-109.7,50.1-160.7,57-191.8,25.9c-21.6-21.6-25.9-77.8-6.9-99.4c6-7.8,39.7-25.1,74.3-38l62.2-23.3l-44.1-34.6
		c-106.3-83.8-191.8-197-231.6-307.6c-17.3-50.1-19.9-71.7-19.9-207.4c0-134.8,2.6-158.1,19.9-216c55.3-175.4,133.1-244.5,318-284.3
		c67.4-14.7,118.4-21.6,319.7-40.6l44.1-4.3l5.2-51c3.5-28.5,8.6-99.4,11.2-157.2l6-106.3l-33.7-12.1
		c-25.9-8.6-95.9-74.3-301.5-282.5l-267.8-271.3h-718H28318l-5.2,32.8c-12.1,74.3-16.4,466.6-5.2,552.1
		c12.1,103.7,12.1,103.7,127,108c70,3.5,86.4,6.9,142.6,34.6c142.6,70.8,273,235,301.5,381c5.2,26.8,12.1,49.2,15.6,49.2
		c2.6,0,40.6-9.5,82.9-21.6c43.2-12.1,84.7-21.6,93.3-21.6c25.9,0,66.5,46.7,66.5,76c0,47.5-21.6,61.3-151.2,97.6
		c-66.5,19-124.4,39.7-129.6,46.7c-4.3,6.9-22.5,36.3-38,64.8c-18.1,31.1-60.5,82.1-105.4,125.3c-62.2,59.6-90.7,79.5-165,116.6
		c-125.3,61.3-217.7,70.8-378.4,42.3c-122.7-22.5-301.5-104.5-431.1-198.7l-72.6-51.8l-110.6,2.6c-95.9,2.6-111.5,0.9-127-13
		c-38-34.6-29.4-99.4,16.4-122.7c13-6.9,44.1-13,69.1-13c42.3,0,44.1-0.9,38.9-19c-13-43.2-15.6-127.9-5.2-171.9
		c23.3-102.8,108.9-241.9,192.7-315.4c54.4-47.5,129.6-90.7,181.4-104.5c50.1-13,166.8-14.7,216.9-3.5c32.8,7.8,32.8,7.8,27.6-14.7
		c-2.6-13-7.8-80.4-11.2-150.3l-5.2-127.9h-36.3c-27.6,0-53.6-10.4-116.6-47.5c-44.1-26.8-202.2-108.9-351.7-182.3l-270.4-134.8
		l-135.6,5.2c-75.2,3.5-292,11.2-482.1,19c-190.1,7.8-346.5,13.8-347.3,14.7s-2.6,86.4-4.3,189.2l-2.6,186.6l51,6
		c38.9,4.3,55.3,10.4,73.4,28.5c12.1,13,38,30.2,57,38.9s72.6,40.6,118.4,71.7c162.4,108,306.7,286,439.8,543.5
		c97.6,187.5,127.9,315.4,109.7,464.8c-13,106.3-13.8,102.8,10.4,109.7c12.1,3.5,82.1,23.3,155.5,43.2
		c148.6,40.6,172.8,55.3,172.8,101.1c0,39.7-11.2,58.8-42.3,71.7c-23.3,9.5-45.8,5.2-207.4-38.9l-181.4-50.1l-56.2,52.7
		c-144.3,134.8-345.6,208.2-544.3,197.9c-116.6-6-173.7-20.7-286-74.3c-104.5-50.1-169.3-98.5-258.3-190.9
		c-65.7-69.1-165-210-174.5-248c-3.5-11.2-7.8-19.9-11.2-19.9c-2.6,0-38-6-78.6-13c-40.6-7.8-125.3-16.4-189.2-19.9
		c-111.5-6.9-116.6-7.8-135.6-31.1c-25.9-30.2-26.8-66.5-0.9-96.8c19.9-23.3,22.5-23.3,110.6-21.6c49.2,0.9,114.9,5.2,146,9.5
		c102,14.7,93.3,25.9,89-105.4c-10.4-273.9,76.9-513.2,244.5-673.1c28.5-25.9,70.8-58.8,94.2-72.6c24.2-13.8,57-39.7,74.3-57.9
		c17.3-18.1,38.9-32.8,48.4-32.8c13.8,0,19-6.9,21.6-29.4l3.5-29.4l-91.6,4.3c-190.9,10.4-406.1-32.8-593.6-119.2
		c-65.7-29.4-222.9-117.5-253.2-140.8c-9.5-7.8-57-8.6-172.8-4.3c-627.3,23.3-1845.5,31.1-1893,12.1c-11.2-4.3-14.7,13-23.3,114
		c-19.9,223.8-28.5,464.8-25.9,741.3c1.7,152.1,0,284.3-4.3,294.6c-8.6,25.1-70,72.6-94.2,73.4c-11.2,0.9-57-5.2-102-13
		c-44.9-7.8-189.2-23.3-319.7-35.4c-130.5-12.1-357.7-35.4-505.4-51.8c-372.4-41.5-500.3-47.5-1062.7-47.5
		c-437.2,0-509.8,1.7-643.7,17.3c-181.4,20.7-234.1,21.6-267.8,4.3c-39.7-20.7-40.6-24.2-18.1-246.2c5.2-54.4,15.6-192.7,23.3-306.7
		c6.9-114,20.7-271.3,29.4-349.9s13.8-144.3,11.2-146.9s-187.5-4.3-411.3-3.5H19430l-367.2,35.4c-283.4,27.6-379.3,39.7-422.5,53.6
		c-86.4,29.4-216,98.5-389.7,206.5c-133.9,83.8-201.3,120.1-345.6,186.6c-57.9,26.8-56.2,20.7-60.5,144.3
		c-2.6,70-0.9,115.8,4.3,120.1c5.2,3.5,32.8,8.6,61.3,11.2c73.4,7.8,177.1,37.2,252.3,71.7c224.6,102.8,374.1,287.7,421.6,521.9
		c17.3,86.4,13,267.8-8.6,345.6c-48.4,178-174.5,379.3-331.8,527.9c-114,108-216,168.5-338.7,198.7c-76,19-248.8,15.6-332.6-6.9
		c-168.5-45.8-295.5-120.1-411.3-242.8c-197.9-208.2-260.9-472.6-192.7-804.4c34.6-167.6,124.4-340.4,223.8-432
		c127.9-116.6,342.1-216.9,463.1-216.9c18.1,0,34.6-2.6,36.3-6.9c2.6-3.5,6.9-146,10.4-318l6-311.9l-559.9-5.2
		c-559.9-5.2-737.9-11.2-1096.4-36.3c-934.9-66.5-1495.6-211.7-1724.6-445.8c-196.1-200.4-120.1-426.8,192.7-572.8
		c132.2-62.2,218.6-89,685.2-211.7c688.6-180.6,1302.9-426,1602.7-639.4c98.5-70,213.4-173.7,296.4-266.1
		c122.7-138.2,260.1-360.3,294.6-476.9c15.6-53.6,18.1-140.8,5.2-208.2c-8.6-46.7-63.9-131.3-118.4-183.2
		c-63.9-60.5-206.5-108-422.5-140c-377.6-57-953,3.5-1478.3,154.7c-206.5,59.6-266.1,82.1-633.3,235.9
		c-739.6,308.5-1166.4,434.6-1693.5,499.4c-250.6,30.2-938.3,25.9-1330.6-10.4c-370.7-33.7-1200.1-152.9-2263.7-326.6
		c-470.9-76.9-547.8-85.5-781.9-88.1c-203-2.6-207.4-2.6-222.9-21.6c-24.2-29.4-17.3-82.9,13.8-106.3
		c23.3-17.3,34.6-18.1,224.6-17.3c238.5,0.9,316.2,9.5,887.3,102.8c812.2,132.2,1628.7,253.2,1987.2,293.8
		c359.4,40.6,1033.4,60.5,1313.3,39.7c515.8-38.9,1017.8-174.5,1693.5-456.2c512.4-213.4,569.4-235,839.8-309.3
		c349.9-96.8,670.5-144.3,1052.4-156.4c199.6-6,338.7,3.5,514.1,35.4c276.5,51,391.4,116.6,505.4,286.8
		c53.6,79.5,60.5,103.7,66.5,231.6c5.2,126.1-6.9,188.4-61.3,302.4c-134.8,286-370.7,553-649.7,738.7
		c-152.1,100.2-495.1,267.8-720.6,349.9c-362.9,133.9-590.1,203.9-1037.7,319.7c-465.7,121-648.9,206.5-707.6,329.2
		c-19,38-19,39.7-4.3,78.6c50.1,129.6,264.4,251.4,587.5,333.5c415.6,105.4,955.6,163.3,1766.9,187.5c298.9,9.5,970.3,9.5,978.9,0
		c2.6-2.6,5.2-138.2,6.9-302.4l1.7-298.1l-48.4-177.1c-146.9-530.5-222-1199.2-143.4-1264c25.9-20.7,78.6-19,99.4,3.5
		c14.7,16.4,16.4,33.7,17.3,166.8c1.7,236.7,64.8,654.1,143.4,958.2l35.4,136.5l21.6-36.3c35.4-59.6,118.4-256.6,152.9-362
		c63.9-197.9,76-275.6,76.9-482.1c0.9-183.2,0.9-184.9,21.6-201.3c26.8-22.5,63.9-20.7,92.4,3.5c28.5,25.1,36.3,70,37.2,217.7
		c1.7,300.7-101.1,635.9-305.9,997.9c-30.2,54.4-36.3,70.8-32.8,100.2c2.6,19.9-1.7,52.7-9.5,76c-11.2,32.8-13.8,81.2-13.8,250.6
		v210.8l256.6,6c335.2,8.6,420.8,4.3,953-43.2c420.8-38,497.7-41.5,857.1-37.2l342.1,4.3l5.2-35.4c9.5-69.1,21.6-270.4,23.3-394
		c2.6-146.9-7.8-203.9-40.6-228.1c-12.1-9.5-29.4-32.8-38-51.8c-44.9-104.5-287.7-404.4-493.3-609.1
		c-83.8-83.8-154.7-160.7-158.1-170.2c-7.8-26.8,8.6-91.6,26.8-105.4c25.1-18.1,51.8-21.6,77.8-8.6c18.1,9.5,32.8,10.4,58.8,3.5
		c99.4-25.1,915.8-1.7,1645.9,46.7c1248.5,82.9,1658.9,68.3,2096.1-72.6c176.3-57,251.4-74.3,280.8-63.9
		c30.2,10.4,42.3,29.4,43.2,69.1l0.9,28.5l6.9-33.7c9.5-51.8,55.3-76.9,100.2-55.3c30.2,13.8,46.7,44.1,46.7,87.3
		c0,66.5-151.2,325.7-453.6,778.5c-174.5,260.9-218.6,320.5-244.5,330.1c-0.9,0,4.3,15.6,12.1,34.6c13,30.2,13,49.2,4.3,180.6
		c-6,80.4-12.1,166.8-15.6,190.9l-4.3,44.1l659.2-1.7c691.2-2.6,934.9-8.6,1777.3-43.2c281.7-12.1,527-21.6,543.5-21.6h31.1
		l-6-144.3c-8.6-230.7-36.3-530.5-51-564.2c-6.9-16.4-51.8-145.2-99.4-285.1c-47.5-140-120.1-347.3-160.7-461.4
		c-89.9-248.8-93.3-284.3-30.2-306.7c43.2-14.7,85.5,9.5,101.1,59.6c6.9,21.6,56.2,161.6,109.7,311
		c53.6,149.5,117.5,334.4,143.4,411.3l45.8,139.1l65.7-106.3c85.5-135.6,194.4-289.4,275.6-387.9c142.6-172.8,413-422.5,534-494.2
		c65.7-38,123.6-11.2,123.6,57.9c0,36.3-6.9,43.2-112.3,117.5c-91.6,63.9-370.7,338.7-463.1,457.1
		c-135.6,171.9-340.4,492.5-340.4,533.1c0,11.2-6,28.5-13,38.9c-11.2,16.4-11.2,34.6,0,164.2c6.9,79.5,15.6,214.3,19,298.9
		c4.3,132.2,6.9,152.9,19,152.9c7.8,0,146-6,307.6-13c318-13,936.6-29.4,1250.2-32.8c107.1-0.9,197.9-3.5,200.4-6
		c2.6-2.6,12.1-57,22.5-121c9.5-63.9,28.5-172.8,42.3-241.1c20.7-106.3,22.5-127,13-137.4c-6.9-6-19.9-38.9-30.2-72.6
		c-16.4-53.6-17.3-64.8-7.8-94.2c13.8-40.6,1.7-106.3-57.9-321.4c-43.2-158.1-98.5-305.9-223.8-599.6
		c-49.2-115.8-89.9-216-89.9-222.9c0-21.6,23.3-62.2,38.9-68.3c25.9-9.5,63.1-5.2,81.2,10.4c19,15.6,82.1,153.8,188.4,416.5
		c108.9,266.1,166.8,455.3,210,682.6c10.4,54.4,19.9,100.2,21.6,102c4.3,4.3,102-161.6,241.9-408.7
		c135.6-240.2,249.7-418.2,311.9-487.3c51.8-57,237.6-198.7,270.4-204.8c49.2-10.4,93.3,35.4,83.8,87.3
		c-4.3,23.3-22.5,40.6-106.3,104.5c-55.3,42.3-114,89-128.7,104.5c-47.5,46.7-184.9,262.7-311,486.4
		c-146,260.1-222.9,387.9-288.6,480.4c-49.2,68.3-51,74.3-72.6,181.4c-12.1,61.3-27.6,148.6-35.4,193.5
		c-6.9,44.9-14.7,92.4-17.3,106.3l-3.5,23.3h620.4h621.2l-4.3-38c-4.3-32.8-1.7-41.5,17.3-60.5c24.2-24.2,56.2-28.5,86.4-13
		c10.4,6,44.9,32.8,76,60.5l57.9,51h281.7h281.7V3515c0-52.7-3.5-75.2-12.1-82.9c-6.9-5.2-45.8-110.6-86.4-232.4
		c-151.2-459.7-335.2-951.3-429.4-1149.1c-32.8-68.3-59.6-133.9-59.6-145.2c0-25.9,44.1-71.7,69.1-71.7
		c44.9,0,64.8,21.6,118.4,135.6c91.6,191.8,258.3,631.6,399.2,1049.8c36.3,108.9,70,197,74.3,197c19,0,32-20.7,138.2-211.7
		c61.3-108.9,192.7-337,293.8-505.4c100.2-168.5,210-355.1,242.8-413c75.2-134.8,88.1-148.6,131.3-148.6c42.3,0,70.8,27.6,70.8,68.3
		c0,32.8-58.8,138.2-319.7,575.4c-93.3,157.2-229.8,392.3-302.4,522.7c-72.6,130.5-143.4,254-156.4,274.8
		c-23.3,34.6-25.1,43.2-25.1,123.6v85.5h832h832l14.7-45.8c13.8-44.9,13.8-44.9-8.6-92.4c-22.5-46.7-32.8-94.2-135.6-626.4
		c-22.5-114-69.1-343-105.4-509.8c-35.4-165.9-64.8-315.4-65.7-330.9c0-40.6,30.2-70.8,70.8-70.8c58.8,0,63.1,11.2,129.6,316.2
		c57,266.1,124.4,602.2,181.4,902.9l27.6,143.4l31.1-11.2c27.6-9.5,37.2-20.7,77.8-95.9c143.4-263.5,318-659.2,472.6-1069.6
		c26.8-70.8,55.3-136.5,62.2-144.3c9.5-10.4,26.8-15.6,50.1-15.6c44.1,0,73.4,26.8,73.4,66.5c0,40.6-183.2,508.9-306.7,784.5
		c-121,269.6-286,582.3-350.8,663.6c-23.3,29.4-66.5,132.2-58.8,139.1c1.7,1.7,199.6,3.5,439.8,4.3c240.2,0.9,450.1,0.9,466.6,1.7
		c16.4,0,213.4,2.6,437.2,4.3l407.8,3.5l5.2-19c2.6-11.2,5.2-51,5.2-89c0-54.4-3.5-74.3-17.3-95c-9.5-13.8-17.3-38.9-17.3-55.3
		c0-16.4-15.6-84.7-33.7-151.2c-78.6-279.1-114-452.7-162.4-778.5c-19.9-138.2-23.3-192.7-24.2-348.2v-184.9l24.2-20.7
		c30.2-25.9,67.4-26.8,95.9-0.9l22.5,19l3.5,181.4c2.6,186.6,19,323.1,70.8,613.4c30.2,171.1,99.4,445.8,109.7,438.9
		c26.8-16.4,152.1-319.7,191.8-465.7c46.7-170.2,58.8-270.4,53.6-434.6c-4.3-140-4.3-141.7,16.4-161.6c24.2-25.1,70.8-27.6,98.5-5.2
		c11.2,8.6,21.6,31.1,26.8,53.6c12.1,64.8,8.6,291.2-5.2,380.2c-38,232.4-130.5,491.6-255.7,718l-51,91.6v158.1v158.1l914.1-5.2
		c502-3.5,921.9-8.6,933.1-11.2c18.1-5.2,19-9.5,19-88.1c0-58.8-3.5-86.4-12.1-95.9c-6.9-7.8-55.3-141.7-107.1-298.9
		c-155.5-467.4-324.9-915.8-419.9-1112.8c-38.9-79.5-48.4-107.1-44.1-126.1c10.4-46.7,57-70,101.1-51.8
		c48.4,19.9,159.8,273.9,346.5,789.7c70.8,196.1,171.1,486.4,201.3,581.5c7.8,26.8,43.2-19,117.5-153.8
		c95-172.8,235.9-415.6,365.5-630.7c53.6-88.1,133.1-222.9,176.3-299.8c99.4-176.3,113.2-192.7,155.5-192.7s73.4,31.1,72.6,71.7
		c-0.9,26.8-149.5,294.6-282.5,509.8c-82.9,135.6-223.8,376.7-360.3,619.5c-179.7,320.5-163.3,282.5-163.3,387.1v90.7l175.4-6
		c269.6-9.5,538.3-22.5,623.8-31.1c121.8-13,140.8-11.2,164.2,13c27.6,26.8,27.6,64.8,2.6,95c-23.3,26.8-63.1,33.7-257.5,47.5
		c-136.5,9.5-548.6,25.9-645.4,25.9h-54.4v97.6c0,52.7-4.3,174.5-9.5,269.6c-4.3,95-11.2,235-15.6,311l-6.9,138.2l22.5,17.3
		c12.1,9.5,44.1,25.9,71.7,36.3c191.8,73.4,334.4,187.5,501.1,403.5c74.3,95.9,146.9,216.9,174.5,290.3
		c27.6,74.3,43.2,179.7,35.4,247.1l-5.2,53.6l48.4,6c30.2,3.5,55.3,12.1,65.7,22.5c22.5,22.5,21.6,71.7-1.7,95
		c-17.3,17.3-24.2,18.1-93.3,13l-74.3-6l-36.3,47.5c-47.5,60.5-133.9,125.3-231.6,173.7c-112.3,56.2-169.3,69.1-293.8,68.3
		c-152.1-1.7-274.8-42.3-414.7-135.6c-63.1-42.3-190.1-168.5-224.6-223.8c-24.2-38.9-25.9-39.7-78.6-45.8
		c-29.4-2.6-96.8-4.3-150.3-3.5l-96.8,2.6l-21.6-25.1c-16.4-19-20.7-30.2-16.4-51c9.5-50.1,28.5-57,158.1-57
		c104.5,0,115.8-1.7,111.5-13.8c-3.5-8.6-12.1-50.1-19-93.3c-18.1-101.1-12.1-265.2,13-363.7c23.3-89,83.8-211.7,133.9-270.4
		c40.6-47.5,105.4-105.4,117.5-105.4c3.5,0,11.2-12.1,17.3-25.9c13.8-34.6,32-43.2,85.5-43.2c51,0,49.2,4.3,57-125.3
		c2.6-51.8,6.9-111.5,9.5-130.5l5.2-35.4l-63.9-4.3c-70.9-5.2-267.8-67.4-525.3-166.8c-187.5-72.6-295.5-122.7-445-207.4
		c-118.4-66.5-133.9-80.4-133.9-120.1v-22.5h-349.9h-349.9V3858c0,57.9-4.3,266.1-8.6,463.1c-6.9,266.1-6,360.3,0.9,368.9
		c6,7.8,27.6,12.1,55.3,12.1c105.4,0,321.4,87.3,426,172.8c107.1,87.3,193.5,216.9,234.1,349.1c37.2,121.8,40.6,298.1,6.9,426.8
		l-12.1,44.9h58.8c77.8,0,146,14.7,170.2,37.2c24.2,22.5,25.9,73.4,2.6,102c-17.3,21.6-38,23.3-140.8,12.1
		c-36.3-4.3-76.9-2.6-112.3,4.3l-54.4,10.4l-56.2,87.3c-92.4,142.6-261.8,304.1-384.5,367.2c-86.4,43.2-141.7,55.3-272.2,58.8
		C34045.5,6378.3,34023.1,6376.6,33952.2,6357.6z M17905.9,6163.2c165.9-51.8,364.6-253.2,474.3-480.4
		c130.5-267.8,73.4-558.1-145.2-740.5c-86.4-71.7-283.4-148.6-361.2-140c-19,1.7-74.3,7.8-123.6,13c-96.8,9.5-133.9,2.6-143.4-26.8
		c-5.2-15.6-6.9-15.6-50.1-0.9c-129.6,44.9-268.7,141.7-323.1,226.4c-130.5,199.6-179.7,488.2-118.4,690.3
		c70.8,235,277.3,418.2,530.5,471.7C17719.3,6191.7,17833.3,6185.6,17905.9,6163.2z M34252,5838.3c59.6-1.7,145.2-10.4,190.1-18.1
		c72.6-12.1,317.1-75.2,323.1-82.9c1.7-0.9,13-28.5,25.1-59.6c36.3-89.9,43.2-138.2,38-257.5c-6-165.9-44.9-260.9-151.2-374.1
		c-84.7-89.9-187.5-148.6-324-184c-52.7-13.8-70-14.7-164.2-5.2c-152.9,13.8-167.6,13-190.9-12.1l-20.7-21.6l-56.2,19.9
		c-66.5,24.2-154.7,75.2-223.8,130.5c-83.8,66.5-167.6,223.8-201.3,376.7c-7.8,35.4-15.6,115.8-19,177.1
		c-4.3,119.2,3.5,174.5,40.6,274.8l18.1,49.2l304.1-4.3C34007.5,5844.4,34192.4,5840.9,34252,5838.3z M31847.5,5700.9
		c324-36.3,408.7-42.3,561.6-43.2l149.5-0.9l13.8-63.9c11.2-50.1,13-91.6,9.5-190.1c-3.5-111.5-7.8-138.2-35.4-233.3
		c-54.4-186.6-133.9-328.3-222-398.3c-54.4-43.2-98.5-55.3-177.1-48.4c-82.9,6.9-89.9,9.5-89.9,45.8c0,39.7-32,71.7-71.7,71.7
		c-16.4,0-55.3,7.8-86.4,17.3c-159,49.2-273,261.8-298.9,553c-7.8,94.2,0,231.6,17.3,282.5c6,19,14.7,28.5,25.1,28.5
		C31652.2,5721.7,31743.8,5712.2,31847.5,5700.9z M30286.3,5520.4c102-57.9,255.7-149.5,342.1-203c85.5-52.7,168.5-99.4,184-102
		c14.7-3.5,28.5-8.6,31.1-12.1c4.3-6.9-89.9-137.4-171.9-237.6c-97.6-121-185.8-177.1-254.9-163.3c-19,4.3-35.4,0-58.8-13.8
		c-30.2-18.1-39.7-19-123.6-13.8c-174.5,9.5-306.7,38.9-361.2,80.4c-59.6,44.9-96.8,161.6-96.8,305c0,148.6,33.7,232.4,138.2,337.8
		c66.5,67.4,149.5,128.7,172.8,128.7C30095.3,5626.6,30184.3,5579.1,30286.3,5520.4z M36908,5561c7.8-20.7,6.1-90.7-3.5-142.6
		c-24.2-133.9-190.1-373.3-375.8-541.7c-105.4-96.8-279.1-174.5-387.1-174.5c-26.8,0-57,9.5-99.4,30.2
		c-98.5,49.2-165.9,136.5-214.3,276.5c-22.5,64.8-24.2,78.6-25.1,211.7c0,123.6,2.6,150.3,19,203l19,61.3l175.4,14.7
		c96.8,8.6,293.8,25.1,438.9,36.3c145.2,12.1,292.9,25.1,328.3,29.4C36886.4,5576.5,36901.9,5576.5,36908,5561z M27105.8,5250.8
		c0.9-53.6-4.3-98.5-17.3-142.6c-38-138.2-184-387.9-313.6-537.4c-102.8-117.5-285.1-230.7-397.4-245.4
		c-44.9-6.9-133.9,15.6-184.9,44.9c-171.9,101.1-290.3,367.2-275.6,621.2c2.6,47.5,9.5,101.1,14.7,118.4c7.8,27.6,13.8,32.8,41.5,38
		c17.3,2.6,139.1,27.6,269.6,55.3c130.5,27.6,344.7,71.7,475.2,98.5c130.5,26.8,267,55.3,302.4,63.9l64.8,15.6l10.4-26.8
		C27100.7,5340.6,27105.8,5293.1,27105.8,5250.8z M27949.1,4995.9c90.7-9.5,255.7-21.6,367.2-25.9c190.1-7.8,288.6-16.4,380.2-32.8
		l38.9-6.9l-1.7-37.2c-3.5-77.8-77.8-194.4-166.8-260.9c-82.9-62.2-110.6-67.4-260.1-46.7c-28.5,4.3-66.5-0.9-137.4-17.3
		c-141.7-34.6-200.4-28.5-282.5,25.1c-114.9,76.9-215.1,245.4-197.9,335.2c2.6,15.6,13,41.5,22.5,57
		C27732.3,5019.2,27728.8,5019.2,27949.1,4995.9z M23040.7,4864.6c3.5-30.2,8.6-192.7,13-361.2c7.8-318.8,8.6-339.6,36.3-630.7
		c8.6-97.6,21.6-252.3,29.4-343.9c11.2-152.1,11.2-168.5-0.9-188.4c-9.5-13.8-12.1-30.2-8.6-49.2l5.2-29.4l-459.7-5.2
		c-443.2-5.2-1080-22.5-1497.3-40.6c-108.9-4.3-311.9-8.6-450.1-8.6h-252.3l-5.2,119.2c-9.5,204.8-22.5,362-48.4,584.9
		c-40.6,343-79.5,877.8-65.7,891.7c3.5,3.5,43.2,0.9,89.9-6c110.6-15.6,1114.6-22.5,1338.3-9.5c86.4,5.2,280.8,22.5,432,39.7
		c151.2,16.4,380.2,39.7,508,51.8c195.3,18.1,256.6,25.9,325.7,38C23032.9,4917.3,23038.1,4894,23040.7,4864.6z M17958.6,4188.1
		c34.6-17.3,127-71.7,204.8-119.2l140.8-88.1l-123.6-5.2c-68.3-3.5-170.2-6-225.5-6.9l-102-0.9v133.9v133.9l20.7-8.6
		C17885.2,4222.6,17923.2,4205.3,17958.6,4188.1z M34095.7,3896.9l0.9-145.2h-291.2c-162.4,0-287.7,3.5-282.5,7.8
		c4.3,3.5,67.4,46.7,140,95c71.7,49.2,196.1,137.4,276.5,197l144.3,108l5.2-59.6C34092.2,4068,34094.8,3976.4,34095.7,3896.9z
		 M30376.1,3775.9l-5.2-41.5h-199.6h-199.6l55.3,58.8c31.1,32,120.1,122.7,198.7,203l142.6,144.3l6-161.6
		C30377.8,3889.1,30378.7,3798.4,30376.1,3775.9z M36120.9,4000.6c3.5-68.3,6.1-153.8,6.1-190.1v-67.4l-252.3,0.9
		c-139.1,0.9-363.8,4.3-499.4,6.9l-246.2,5.2l159.8,79.5c237.6,118.4,698.1,286,787.1,287.7h39.7L36120.9,4000.6z M32084.2,3996.3
		c8.6-51,25.1-131.3,36.3-177.1l20.7-84.7h-298.1H31546l132.2,89c73.4,49.2,189.2,130.5,258.3,180.6c69.1,51,126.1,90.7,127.9,89
		S32074.7,4048.1,32084.2,3996.3z M26251.3,3946.1c5.2-2.6,8.6-38,8.6-78.6c0-70.8-0.9-72.6-20.7-72.6c-43.2,0-640.2,26.8-648,28.5
		c-4.3,1.7,28.5,19,73.4,38.9c88.1,38,217.7,74.3,314.5,87.3C26041.4,3958.2,26235.8,3955.6,26251.3,3946.1z M28135.7,3941.8
		c12.1,0,15.6-14.7,19.9-83.8c3.5-46.7,8.6-91.6,10.4-99.4c4.3-14.7-10.4-15.6-231.6-15.6l-235.9,0.9l164.2,81.2
		c90.7,44.1,178,90.7,194.4,102.8c17.3,13,37.2,20.7,47.5,18.1C28114.1,3943.5,28128,3941.8,28135.7,3941.8z M23111.5,3103.7
		c13-5.2,34.6-19,48.4-30.2c15.6-13,36.3-21.6,52.7-21.6c26.8,0,34.6-10.4,210-274.8c171.9-256.6,292-450.1,343-552.1l22.5-43.2
		l-44.9,15.6c-102.8,35.4-362.9,111.5-455.3,132.2c-363.7,81.2-773.3,85.5-1791.9,22.5c-783.7-49.2-1438.6-76-1597.5-64.8l-94.2,6
		l98.5,101.1c147.7,150.3,287.7,322.3,402.6,493.3c49.2,74.3,66.5,92.4,89.9,99.4c16.4,5.2,35.4,19.9,45.8,36.3
		c10.4,16.4,26.8,28.5,42.3,32c13.8,2.6,132.2,5.2,263.5,5.2c131.3,0,380.2,6,553.8,13c262.7,10.4,594.4,19.9,1114.6,32.8
		C22675.2,3113.2,23090.8,3111.5,23111.5,3103.7z"/>
	<path class="st0" d="M20944.6,4568.2c-1.7-2.6-26.8-6-54.4-7.8c-43.2-2.6-54.4-7.8-72.6-27.6l-20.7-24.2l5.2-221.2
		c3.5-158.1,13-306.7,35.4-527c25.1-253.2,28.5-312.8,19.9-343c-8.6-32.8-7.8-39.7,7.8-60.5c23.3-31.1,51-37.2,116.6-23.3
		c30.2,6,179.7,20.7,332.6,32.8c152.1,12.1,356,32,451.9,44.1c238.5,29.4,616.9,63.9,771.6,70.8c117.5,5.2,128.7,6.9,146,25.1
		c14.7,16.4,17.3,25.9,13,57c-5.2,37.2-6,47.5-3.5,91.6c0.9,13-6.9,71.7-17.3,131.3c-10.4,59.6-22.5,162.4-27.6,229
		c-12.1,163.3-11.2,412.1,0.9,439.8c7.8,17.3,6.9,27.6-6,53.6c-19,38.9-58.8,55.3-94.2,39.7c-13.8-6.9-28.5-6.9-40.6-1.7
		C22475.6,4559.6,20957.6,4581.2,20944.6,4568.2z M22187.1,4411l303.3-5.2l5.2-216.9c5.2-217.7,20.7-390.5,44.9-495.9
		c7.8-31.1,12.1-57,11.2-57.9c-1.7-0.9-86.4-8.6-188.4-16.4c-230.7-19-470.9-43.2-648.9-65.7c-207.4-26.8-692.1-63.1-699-51.8
		c-10.4,17.3-63.1,627.3-62.2,725.8c0,78.6,4.3,160.7,9.5,197.9C20963.6,4429.1,21679.9,4420.5,22187.1,4411z"/>
	<path class="st0" d="M6297.1,6290.2c-9.5-5.2-51-40.6-92.4-77.8l-74.3-68.3l-128.7-2.6c-356.8-7.8-708.5-155.5-959-402.6
		c-84.7-82.9-161.6-190.1-193.5-267.8c-41.5-102.8-19.9-246.2,50.1-328.3c17.3-19,29.4-36.3,27.6-38
		c-39.7-32-123.6-92.4-147.7-107.1c-38-23.3-52.7-59.6-39.7-96.8c11.2-32,51-55.3,83.8-47.5c13,2.6,72.6,41.5,131.3,85.5l106.3,80.4
		l72.6-33.7c129.6-59.6,305.9-88.1,424.2-68.3c31.1,5.2,57,7.8,57.9,6.9c0.9-0.9,8.6-98.5,17.3-217.7
		c20.7-288.6,20.7-870.1,0.9-892.5c-7.8-8.6-52.7-131.3-99.4-273.9c-155.5-470-336.1-946.1-429.4-1136.2
		c-37.2-76-47.5-105.4-44.1-124.4c10.4-50.1,49.2-72.6,97.6-56.2c25.1,7.8,34.6,19.9,70.8,92.4c94.2,187.5,254,604.8,408.7,1064.5
		c37.2,111.5,69.1,208.2,71.7,214.3c8.6,24.2,41.5-14.7,96.8-114.9c99.4-181.4,226.4-400,346.5-600.5
		c64.8-107.1,159.8-267.8,210.8-358.6c51.8-89.9,103.7-172.8,115.8-183.2c45.8-41.5,115.8-12.1,115.8,49.2
		c0,25.9-21.6,70.8-110.6,225.5c-61.3,106.3-136.5,234.1-166.8,284.3c-85.5,138.2-229.8,384.5-323.1,553
		c-45.8,82.9-111.5,198.7-144.3,257.5l-60.5,105.4l5.2,244.5c6,229,3.5,311-20.7,770.7l-7.8,155.5l22.5,23.3
		c12.1,12.1,32,25.1,44.9,28.5c73.4,18.1,259.2,159,400,305c183.2,189.2,274.8,359.4,274.8,506.3c-0.9,104.5-49.2,179.7-150.3,231.6
		l-51,25.9l44.9,40.6c34.6,30.2,45.8,47.5,50.1,71.7c4.3,27.6,0.9,35.4-21.6,58.8C6353.3,6301.4,6326.5,6306.6,6297.1,6290.2z
		 M5960.2,5989.5c-10.4-16.4-254.9-231.6-501.1-439.8c-389.7-329.2-400-337.8-408.7-337.8c-17.3,0-59.6,58.8-70.8,97.6
		c-14.7,54.4-1.7,101.1,51.8,182.3c52.7,80.4,115.8,147.7,202.2,217.7c70.8,57,196.1,135.6,260.1,163.3
		c144.3,62.2,256.6,95,382.8,112.3c45.8,6,84.7,11.2,86.4,12.1C5964.5,5998.2,5962.8,5994.7,5960.2,5989.5z M6233.2,5967
		c121-35.4,152.1-93.3,112.3-206.5c-46.7-133.1-201.3-324-378.4-465.7c-59.6-47.5-63.1-49.2-82.1-36.3
		c-25.9,18.1-72.6,17.3-89.9-0.9c-6.9-8.6-25.1-34.6-40.6-58.8c-20.7-31.1-35.4-44.1-56.2-49.2c-19-5.2-34.6-17.3-45.8-37.2
		c-13.8-23.3-25.9-31.1-62.2-39.7c-55.3-13.8-204.8-13.8-256.6,0c-58.8,15.6-138.2,45.8-138.2,51.8c0,3.5,117.5,104.5,260.9,225.5
		c275.6,233.3,480.4,410.4,629,547.8c49.2,45.8,92.4,82.9,95,82.9C6183.9,5980.9,6207.3,5974.8,6233.2,5967z"/>
	<path class="st0" d="M7442.8,6239.2c-99.4-19-214.3-68.3-307.6-131.3c-109.7-74.3-241.1-222-298.9-335.2
		c-13.8-27.6-27.6-51.8-32-54.4c-4.3-2.6-56.2-11.2-114.9-19c-125.3-18.1-146-29.4-146-82.9c0-25.1,6-39.7,22.5-56.2
		c21.6-21.6,25.1-21.6,88.1-16.4c37.2,2.6,74.3,7.8,84.7,10.4c17.3,4.3,18.1,2.6,11.2-37.2c-25.9-157.2,13-399.2,89-551.2
		c58.8-116.6,170.2-238.5,262.7-286.9c25.9-13,46.7-28.5,46.7-34.6c0-13.8,42.3-45.8,61.3-45.8c8.6,0,17.3-6.9,20.7-16.4
		c2.6-8.6,5.2-157.2,5.2-330.1c0.9-297.2-2.6-383.6-31.1-707.6l-11.2-133.9l-103.7-298.1c-57-164.2-120.1-343-140-397.4
		c-99.4-270.4-114-327.5-95-362.9c18.1-32.8,89.9-39.7,114.9-9.5c13,15.6,82.1,205.6,223.8,618.6c51.8,152.1,95.9,277.3,96.8,278.2
		c0.9,0.9,56.2-80.4,123.6-181.4c153.8-230.7,241.1-339.6,404.4-503.7c134.8-134.8,216.9-205.6,319.7-274.8
		c51.8-34.6,64.8-40.6,90.7-36.3c38.9,6,60.5,32.8,60.5,75.2c0,36.3,6,31.1-129.6,129.6c-108,79.5-377.6,353.4-472.6,480.4
		c-141.7,189.2-313.6,461.4-313.6,497.7c0,8.6-5.2,25.9-12.1,38.9c-9.5,19.9-8.6,52.7,6,222c13,159,16.4,270.4,16.4,558.1
		l-0.9,360.3l48.4,6c35.4,4.3,53.6,12.1,70.8,28.5c12.1,13,38,30.2,57,38.9c64.8,29.4,207.4,130.5,258.3,182.3
		c149.5,154.7,318,426,380.2,610c26.8,82.1,42.3,196.1,35.4,260.9c-3.5,27.6-3.5,50.1-0.9,50.1c13,0,255.7,53.6,296.4,64.8
		c50.1,14.7,71.7,38,71.7,77.8c0,61.3-44.1,82.9-129.6,60.5c-29.4-7.8-107.1-25.1-172.8-38l-118.4-24.2l-16.4,30.2
		c-43.2,80.4-192.7,192.7-323.1,242.8C7715.8,6244.4,7555.1,6261.7,7442.8,6239.2z M7697.7,6084.6c95.9-24.2,213.4-83.8,275.6-140.8
		l51-46.7l-29.4-5.2c-41.5-7.8-313.6-43.2-578-75.2c-120.1-14.7-261.8-34.6-314.5-43.2c-52.7-9.5-96.8-15.6-98.5-14.7
		c-6.9,7.8,117.5,149.5,164.2,185.8C7340.9,6082,7519.7,6129.5,7697.7,6084.6z M8083.9,5725.1c19.9-120.1-54.4-315.4-205.6-543.5
		c-124.4-187.5-228.1-286.9-383.6-364.6c-127.9-63.9-198.7-67.4-307.6-14.7c-45.8,22.5-133.9,103.7-169.3,155.5
		c-39.7,57.9-80.4,149.5-100.2,227.2c-25.9,99.4-32,265.2-12.1,351.7l11.2,52.7l152.9,26.8c158.1,28.5,200.4,33.7,605.7,83.8
		c135.6,16.4,277.3,35.4,315.4,42.3c38,6,73.4,12.1,78.6,13C8074.4,5755.4,8081.3,5742.4,8083.9,5725.1z"/>
	<path class="st0" d="M9226.1,5871.1c-161.6-19-305-74.3-466.6-179.7c-126.1-82.1-220.3-186.6-234.1-259.2
		c-4.3-26.8-7.8-28.5-69.1-42.3c-35.4-7.8-75.2-13.8-89-13.8c-57,0-82.9-82.9-39.7-125.3c13.8-14.7,30.2-21.6,50.1-21.6
		c27.6,0,107.1,13,135.6,21.6c10.4,3.5,18.1-8.6,30.2-44.9c38-112.3,155.5-252.3,263.5-315.4c72.6-42.3,128.7-53.6,245.4-47.5
		l93.3,5.2l-6-23.3c-2.6-13-7.8-120.1-10.4-239.3c-6-289.4,18.1-538.3,88.1-892.5c29.4-149.5,29.4-150.3,13-172.8
		c-8.6-13-22.5-47.5-30.2-77.8c-11.2-45.8-12.1-57.9-1.7-77.8c9.5-19.9,8.6-35.4-7.8-114.9c-56.2-269.6-122.7-461.4-311-890.8
		c-30.2-69.1-55.3-132.2-55.3-140c0-62.2,81.2-97.6,123.6-54.4c22.5,21.6,186.6,400,259.2,598.8c54.4,146.9,101.1,313.6,135.6,486.4
		l22.5,116.6l47.5-77.8c26.8-42.3,94.2-158.1,150.3-258.3c254.9-453.6,320.5-546.1,464-660.1c117.5-94.2,159-118.4,190.9-110.6
		c41.5,11.2,65.7,51.8,54.4,95c-2.6,13-41.5,48.4-102,95c-175.4,133.1-203.9,172.8-485.6,669.6c-127,224.6-184.9,319.7-250.6,410.4
		c-46.7,64.8-46.7,66.5-73.4,202.2c-56.2,285.1-87.3,570.2-87.3,790.6c0,182.3,12.1,305.9,31.1,327.5c10.4,11.2,32.8,15.6,97.6,18.1
		c77.8,2.6,90.7,6,152.9,36.3c127.9,63.1,251.4,210.8,292,349.9c30.2,102,8.6,231.6-53.6,323.1c-27.6,41.5-25.1,49.2,16.4,49.2
		c9.5,0,26.8,9.5,38,21.6c45.8,44.9,13.8,126.1-49.2,124.4c-15.6,0-57-5.2-92.4-11.2l-64.8-12.1l-39.7,25.1
		C9470.6,5855.6,9350.5,5886.7,9226.1,5871.1z M9398,5709.6c24.2-9.5,21.6-11.2-69.1-38.9c-51.8-15.6-179.7-59.6-284.3-97.6
		c-200.5-72.6-317.1-111.5-321.4-107.1c-7.8,7.8,96.8,89.9,165.9,130.5c121,70.8,221.2,108.9,328.3,124.4
		C9277.1,5728.6,9361.8,5723.4,9398,5709.6z M9636.5,5538.5c75.2-95,93.3-170.2,62.2-259.2c-33.7-95.9-125.3-200.4-213.4-243.6
		c-51-25.1-81.2-25.9-203.9-9.5c-28.5,4.3-65.7-0.9-133.9-17.3c-127.9-32-197.9-27.6-267,13.8c-26.8,16.4-62.2,43.2-79.5,59.6
		c-63.9,63.1-145.2,204.8-121,210.8c32,8.6,394.9,131.3,524.5,178c156.4,55.3,344.7,110.6,377.6,111.5
		C9595.9,5583.4,9612.3,5569.6,9636.5,5538.5z"/>
	<path class="st0" d="M6117.4,1506.2c-63.9-25.1-126.1-83.8-159.8-152.9c-25.9-51-28.5-65.7-28.5-131.3s2.6-80.4,28.5-131.3
		c54.4-111.5,150.3-171.1,273.9-171.1c93.3,0,150.3,23.3,217.7,90.7c44.1,44.9,55.3,62.2,70.8,111.5c23.3,74.3,23.3,126.1,0,200.4
		c-15.6,49.2-26.8,66.5-70.8,111.5c-68.3,68.3-124.4,90.7-220.3,89.9C6183.9,1523.5,6147.7,1517.4,6117.4,1506.2z M6315.3,1462.1
		c49.2-14.7,110.6-66.5,140-119.2c24.2-43.2,26.8-54.4,26.8-121s-2.6-77.8-26.8-121c-84.7-149.5-283.4-177.1-405.2-56.2
		c-111.5,112.3-88.1,311.9,45.8,390.5C6171,1479.4,6231.5,1487.2,6315.3,1462.1z"/>
	<path class="st0" d="M6183.1,1389.5c-42.3-26.8-85.5-114.9-85.5-175.4c0-70.8,48.4-143.4,101.1-152.9
		c64.8-12.1,205.6,60.5,199.6,102.8c-4.3,30.2-29.4,26.8-85.5-10.4c-70-46.7-112.3-49.2-137.4-6.9c-10.4,15.6-17.3,43.2-17.3,64.8
		c0,78.6,65.7,171.1,80.4,114c6-23.3,37.2-22.5,49.2,0.9C6317,1380.9,6241.8,1425.8,6183.1,1389.5z"/>
	<path class="st0" d="M6944.3,1444c-66.5-14.7-142.6-55.3-178-94.2c-32.8-37.2-35.4-46.7-15.6-74.3c19.9-29.4,58.8-23.3,62.2,9.5
		c5.2,44.9,111.5,101.1,190.1,101.1h30.2l-6-34.6c-2.6-19-24.2-82.1-47.5-140c-49.2-121.8-58.8-161.6-44.9-187.5
		c21.6-39.7,93.3-13,190.1,70c32,26.8,36.3,63.1,9.5,71.7c-13,4.3-32-6-73.4-38.9c-31.1-25.1-56.2-40.6-56.2-35.4
		s18.1,53.6,39.7,107.1c47.5,116.6,58.8,196.1,32.8,229C7056.6,1452.6,7009.1,1458.7,6944.3,1444z"/>
	<path class="st0" d="M7756.4,1391.3c-83.8-23.3-110.6-45.8-100.2-85.5c6.9-28.5,40.6-32,57.9-6c11.2,15.6,94.2,43.2,131.3,43.2
		c25.1,0,13-33.7-45.8-129.6c-84.7-137.4-102-190.1-72.6-219.5c19.9-20.7,46.7-17.3,134.8,17.3c86.4,34.6,102.8,46.7,95.9,72.6
		c-6,22.5-32.8,22.5-90.7-0.9c-25.1-10.4-54.4-21.6-65.7-25.9l-19-7.8l17.3,35.4c10.4,19,31.1,55.3,46.7,79.5
		c74.3,116.6,94.2,192.7,58.8,224.6C7886,1406,7814.3,1406.8,7756.4,1391.3z"/>
	<path class="st0" d="M8021.7,1372.3c-11.2-12.1-6-190.9,7.8-259.2c15.6-76,26.8-94.2,54.4-85.5c20.7,6,23.3,36.3,8.6,99.4
		c-5.2,21.6-12.1,85.5-14.7,142.6c-6,102.8-6,103.7-27.6,106.3C8038.1,1377.5,8025.1,1375.7,8021.7,1372.3z"/>
	<path class="st0" d="M7353.8,1347.2c-50.1-20.7-97.6-111.5-98.5-184c0-39.7,3.5-50.1,25.1-71.7s32-25.1,71.7-25.1
		c38.9,0,51,4.3,73.4,25.1c73.4,66.5,92.4,191.8,35.4,229C7413.4,1351.5,7382.3,1359.3,7353.8,1347.2z M7428.1,1236.6
		c0-46.7-42.3-109.7-73.4-109.7c-41.5,0-48.4,41.5-17.3,106.3c11.2,25.1,16.4,27.6,51.8,27.6
		C7426.4,1260.8,7428.1,1259.9,7428.1,1236.6z"/>
</g>
</svg>
