<?xml version="1.0" encoding="utf-8"?>
<!-- Generator: Adobe Illustrator 25.1.0, SVG Export Plug-In . SVG Version: 6.00 Build 0)  -->
<svg version="1.1" id="Layer_1" xmlns="http://www.w3.org/2000/svg" xmlns:xlink="http://www.w3.org/1999/xlink" x="0px" y="0px"
	 viewBox="0 0 4000 672" style="enable-background:new 0 0 4000 672;" xml:space="preserve">
<style type="text/css">
	.st0{fill:#333333;}
</style>
<g transform="translate(0.000000,672.000000) scale(0.100000,-0.100000)">
	<path class="st0" d="M7654,4320.8c-71.1-17.4-120.8-35.5-170.5-62.7c-118.8-64.6-218.3-171.2-268.7-286.8
		c-25.2-57.5-25.8-58.1-62.7-58.1c-26.5,0-34.9-3.2-51-18.7c-22.6-23.3-24.5-49.7-5.2-74.9c12.3-14.9,18.1-16.8,42-14.9l28.4,1.9
		l-4.5-43.3c-5.2-55.5,7.8-172.5,27.1-250.6c22-86.6,48.4-147.9,96.9-219.6c32.9-50.4,51.7-70.4,94.9-104
		c70.4-54.3,184.1-111.7,249.3-125.3c27.1-5.2,60.1-12.3,72.3-14.9l22.6-4.5l3.9-151.8c2.6-83.3,6.5-291.3,9-461.8
		c5.2-310,5.2-310-9-332.6c-7.1-12.3-13.6-33.6-13.6-46.5s-11.6-65.2-25.2-116.3c-47.2-169.9-51.7-189.9-74.3-309.4
		c-61.4-323.6-85.3-608.4-54.9-656.9c14.9-23.3,42-31,67.8-18.7c12.3,5.8,22,14.2,22.6,18.7c0.6,4.5,1.3,59.4,2.6,121.4
		c1.9,135.6,23.9,306.8,68.5,542.6c16.1,85.3,64.6,271.3,70.4,271.3c13.6,0,122.1-256.4,147.3-348.8
		c38.1-139.5,54.9-295.2,41.3-386.3c-8.4-57.5,6.5-85.3,45.9-85.3c51.7,0,59.4,23.3,59.4,174.4c0,98.2-2.6,132.4-14.9,192.5
		c-36.8,182.1-98.2,343.6-204.8,538c-19.4,34.2-17.4-1.9-29.7,667.9c-3.9,213.2-8.4,389.5-9.7,392.1c-1.9,2.6,0,11,3.9,18.1
		c5.2,10.3,13.6,12.9,37.5,12.9c71.7,0,213.2,52.3,297.1,108.5c79.4,54.9,159.5,157,194.4,249.3c36.2,97.5,43.9,260.3,16.1,347.5
		c-3.2,11.6-1.3,12.3,24.5,8.4c14.9-1.9,49.1-4.5,74.9-5.2c43.3-1.3,48.4,0,60.1,14.2c16.8,20,16.1,54.9-1.3,71.1
		c-16.1,14.9-32.9,18.1-127.9,23.9c-73,4.5-73.6,4.5-84,23.3c-62.7,113.7-169.9,242.2-258.4,309.4c-51,38.1-118.2,72.3-171.8,86.6
		C7831.6,4333.7,7716,4335.7,7654,4320.8z M7890.4,4207.8c60.1-20.7,124-64.6,186.7-127.2c48.4-49.1,127.2-151.8,120.8-158.2
		c-1.9-1.9-101.4,4.5-221.5,14.2c-182.1,14.2-240.3,16.1-344.9,12.9c-124-3.9-260.3-13.6-302.3-20.7l-22-3.2l20.7,38.1
		c85.9,161.5,275.8,270.6,456,263.5C7825.2,4225.2,7856.8,4219.4,7890.4,4207.8z M8048,3826c113.7-9.7,209.3-20,212.5-22.6
		c11.6-11,24.5-76.2,27.8-142.7c4.5-85.3-7.8-147.9-44.6-225.4c-21.3-45.2-36.2-64.6-82-110.5c-65.9-65.2-127.9-100.1-222.2-125.3
		l-60.7-16.1l-91.7,9.7c-50.4,5.8-97.5,8.4-104,6.5s-16.1-10.3-22-19.4c-9.7-14.2-11-14.9-39.4-6.5
		c-43.3,13.6-122.7,56.8-173.1,94.3c-68.5,51.7-129.2,152.4-156.3,260.9c-20,77.5-32.3,201.5-24.5,251.9l5.2,38.8l84,7.8
		C7613.3,3851.9,7736.7,3851.9,8048,3826z"/>
	<path class="st0" d="M30519.2,4294.3c-160.8-25.8-312.6-114.3-407.6-239c-15.5-20-29.7-32.3-38.1-32.3c-29.7,0-82.7,19.4-104,38.1
		c-27.8,25.2-58.8,27.1-78.8,5.2c-42.6-45.2,20.7-119.5,116.9-136.9c12.9-2.6,23.9-6.5,23.9-9c0-1.9-7.1-26.5-16.1-53.6
		c-34.9-108.5-34.9-242.2,0-384.3c22.6-93,49.1-151.8,106.6-237.7c72.3-107.2,242.2-204.1,395.9-226.1c16.8-2.6,31.6-6.5,32.9-9
		c1.9-2.6,3.9-58.1,4.5-123.4l1.3-119.5l-16.8-3.2c-9-1.9-44.6-26.5-78.8-54.9c-78.2-63.9-216.4-163.4-397.2-284.8l-139.5-93.7
		l-355.9-3.9l-356.5-3.9l-9.7,34.9c-38.1,131.8-60.7,292-66.5,471.5l-3.9,120.1l38.1,4.5c58.1,7.1,112.4,36.2,166,91.1
		c75.6,76.2,127.9,175,172.5,326.2c33.6,115,40.7,282.3,16.1,374c-5.2,19.4-7.8,37.5-6.5,39.4c1.9,2.6,18.1,9.7,36.8,16.1
		c63.9,20.7,93.7,36.2,101.4,52.3c10.3,23.3,9,37.5-6.5,57.5c-12.3,14.9-17.4,16.8-40.7,14.2c-14.9-1.3-48.4-10.3-74.9-20
		c-44.6-16.8-49.1-17.4-54.9-7.1c-140.2,236.4-299.1,339.1-467.6,304.2c-113-23.9-228-103.3-315.2-219
		c-18.7-24.5-34.2-47.2-35.5-50.4c-3.2-9-111.1,4.5-135.6,16.8c-27.1,12.9-45.2,12.3-65.9-3.9c-12.9-10.3-16.8-18.7-16.8-37.5
		c0-41.3,39.4-66.5,118.2-74.9c42-4.5,43.9-5.8,40.7-19.4c-16.8-67.2-21.3-195.1-10.3-287.4c14.9-118.8,61.4-252.6,115-331.4
		c25.2-35.5,82-91.1,109.8-105.9c16.8-9,20.7-15.5,20.7-32.3c0-12.3,5.2-26.5,12.3-33.6c12.3-12.3,111.7-47.2,158.9-56.2l22.6-3.9
		l1.3-96.2c0.6-53,1.3-107.2,1.9-120.1c0-24.5-0.6-25.2-126-116.3c-155.7-114.3-266.8-189.3-384.3-258.4l-90.4-53.6H28161h-271.9
		l-3.9,153.7c-4.5,179.6-16.1,411.4-23.9,476c-4.5,43.9-4.5,45.9,12.3,59.4c9,7.8,23.9,16.1,32.9,18.1
		c63.9,14.9,195.7,154.4,313.3,331.4c16.8,25.2,34.2,46.5,38.8,46.5c3.9,0,22-4.5,39.4-9.7c51.7-15.5,71.7-12.9,86.6,11.6
		c22.6,35.5,5.2,69.8-41.3,83.3c-14.9,3.9-28.4,9-31,11c-2.6,2.6,2.6,23.9,11.6,49.1c41.3,113,18.1,220.9-64.6,299.1
		c-42,40-78.2,60.7-142.7,82.7c-45.9,15.5-63.9,17.4-158.2,20c-135,3.2-213.8-9.7-324.2-53.6l-75.6-30.4l-66.5,29.7
		c-85.3,38.1-112.4,42.6-136.3,23.9c-13.6-11-17.4-19.4-17.4-37.5c0.6-32.3,11.6-44.6,53.6-58.8c61.4-21.3,61.4-18.7,4.5-67.2
		c-89.1-75.6-144-162.1-165.4-259c-12.9-62-9.7-197.6,7.1-258.4c25.2-91.7,72.3-157.6,134.3-189.3c58.1-29.1,229.3-60.1,333.9-60.1
		h43.9l3.9-30.4c1.9-17.4,5.2-56.8,7.1-89.1c1.9-31.6,5.2-73,7.1-91.7l3.2-33.6l-31-13.6c-24.5-11-72.3-55.5-228-213.8l-197-199.6
		h-526.4c-289.4,0-532.9,1.9-540.6,3.9c-18.7,5.2-20.7,22-25.2,209.9c-4.5,171.2,2.6,277.7,20.7,297.1c7.8,8.4,24.5,11.6,73,13.6
		c57.5,1.9,67.8,4.5,111.7,26.5c111.1,54.9,209.3,180.9,228,293.9c5.2,32.3,5.8,32.3,82.7,11c43.9-11.6,60.7-14.2,73.6-9
		c22.6,8.4,33.6,24.5,34.2,48.4c0,32.3-20.7,44.6-116.9,71.1c-86.6,23.3-88.5,23.9-99.5,47.2c-19.4,41.3-66.5,101.4-107.9,138.9
		c-42,38.1-122.1,84.6-180.2,104.6c-51,17.4-171.2,16.1-244.2-2.6c-98.2-25.8-208-80.1-299.1-148.6l-47.2-35.5l-79.4,4.5l-79.4,3.9
		l-20-19.4c-16.1-16.8-18.7-23.3-15.5-40.7c5.8-30.4,23.3-41.3,74.3-46.5l44.6-4.5l-9-29.1c-44.6-147.9,108.5-381.1,279.7-426.3
		c38.1-10.3,145.3-9,172.5,1.9c11,3.9,11.6,2.6,8.4-17.4c-2.6-12.3-6.5-64.6-8.4-116.9l-4.5-95.6h-27.8c-22.6,0-40.7-7.1-91.1-37.5
		c-34.9-20.7-153.1-82-262.2-136.3l-198.9-98.8l-107.9,3.9c-240.3,9-618.1,24.5-618.8,25.2c-0.6,0.6-2.6,65.9-3.9,144.7l-3.9,142.7
		l35.5,4.5c24.5,3.2,40.7,9.7,55.5,22c11.6,10.3,39.4,27.8,62.7,39.4c153.1,76.9,292,233.2,406.3,458.6
		c57.5,111.7,73,167.3,76.2,264.8c1.9,57.5,0,90.4-6.5,115c-6.5,25.2-7.1,35.5-1.9,36.8c3.9,1.3,64.6,18.7,134.3,38.1
		c121.4,33.6,206,47.8,284.2,47.2c42-0.6,63.3,32.3,46.5,72.3c-22,51.7-138.9,42.6-399.2-31c-106.6-30.4-139.5-34.9-139.5-20
		c0,3.2-22,23.3-49.1,44.6c-59.4,48.4-160.2,98.2-234.5,116.3c-101.4,25.2-222.2,16.1-323.6-23.9
		c-141.5-56.2-277.1-181.5-348.8-322.3c-11-22.6-20.7-40.7-21.3-40.7c-1.3,0-42-5.8-91.7-12.9c-49.7-7.1-115-12.9-144-12.9
		c-63.3,0-93-11-104.6-38.8c-14.2-34.2,8.4-84.6,42-93c16.1-4.5,54.9,12.3,54.9,23.3c0,2.6,15.5,5.2,34.2,5.2
		c34.9,0,142.7,11,159.5,16.1c8.4,2.6,9.7-13.6,9.7-118.2c0-104.6,1.9-127.9,14.9-177c34.2-128.5,74.9-202.8,158.9-286.8
		c35.5-35.5,70.4-63.9,89.1-72.3c18.7-9,34.2-21.3,40.7-32.9c7.1-14.2,16.1-20.7,32.3-23.9c21.3-3.9,22.6-5.8,22.6-28.4v-24.5
		l-78.8,3.2c-162.1,7.1-308.7-27.8-475.4-111.7c-58.1-29.7-116.3-61.4-129.2-71.1l-23.3-18.1l-271.3,8.4
		c-364.9,10.3-1062.5,16.1-1182.7,9c-53-3.2-97.5-5.2-98.8-4.5c-0.6,0.6-6.5,45.9-11.6,100.1c-7.8,70.4-11,193.8-13.6,422.4
		c-1.3,198.3-5.2,329.4-9,339.1c-11,25.8-56.8,60.1-76.9,55.5c-58.8-12.9-155.7-25.2-313.3-39.4c-99.5-9-244.8-23.9-323-32.9
		c-308.7-34.9-324.2-36.2-757.7-39.4c-375.3-3.2-426.3-1.9-526.4,8.4c-61.4,7.1-139.5,12.3-174.4,12.3c-60.1,0-64.6-0.6-76.9-16.1
		c-13.6-16.8-13.6-21.3,0.6-164.7c3.9-38.8,11.6-140.2,16.8-224.8c5.8-84.6,16.1-204.8,22.6-267.4c7.1-62.7,11.6-115,10.3-116.9
		c-1.9-1.3-108.5-4.5-237.7-6.5c-226.1-3.2-407.6,3.2-509,18.1c-23.3,3.2-63.3,9-89.1,12.9c-90.4,12.9-197.6,61.4-342.3,154.4
		c-94.3,60.7-166.6,100.8-254.5,142.7l-74.9,35.5l-4.5,85.3c-5.8,99.5-3.2,105.3,38.8,105.3c82.7,0,248.7,67.2,327.5,131.8
		c85.9,71.1,151.8,173.8,180.2,281.6c12.3,45.2,14.9,71.1,14.2,145.3c-0.6,113.7-12.9,164.7-65.9,271.3
		c-101.4,202.2-269.3,359.8-433.4,407.6c-56.8,16.1-191.8,16.8-251.9,0c-250.6-67.2-419.8-240.9-469.6-480.6
		c-19.4-94.9-2.6-279,35.5-388.8c27.1-76.9,91.1-186.7,131.1-223.5c95.6-89.1,262.2-169.9,350.7-170.5c38.8,0,36.8,7.8,42-236.4
		c2.6-124,3.9-226.7,1.9-228.7c-1.3-1.9-191.8-1.9-423.1-0.6c-909.4,4.5-1512.7-39.4-1926.8-141.5
		c-237.7-58.8-383.7-127.2-475.4-225.4c-53-55.5-71.7-93.7-74.9-152.4c-2.6-53,7.8-84,47.8-136.9
		c77.5-102.7,230.6-170.5,577.4-257.1c569-142.1,1065.1-335.9,1318.3-514.1c80.7-56.8,217.7-191.2,278.4-273.9
		c56.8-76.9,115.6-175,142.1-239c20-48.4,21.3-56.2,21.3-126c-0.6-87.8-8.4-109.2-66.5-178.3c-60.7-71.7-126.6-99.5-318.4-133.1
		c-77.5-13.6-105.9-14.9-270.6-14.2c-246.7,0-411.4,18.1-647.2,71.1c-115.6,25.2-319.1,82.7-396.6,111.1
		c-45.2,16.8-293.2,118.8-451.5,185.4c-135.6,57.5-411.4,155.7-522.5,187.3c-173.1,48.4-318.4,81.4-459.2,103.3
		c-35.5,5.2-73,11.6-84,12.9c-77.5,12.3-271.9,22.6-430.8,22.6c-395.3,0-678.9-22.6-1145.2-91.1c-95.6-14.2-242.9-35.5-326.2-47.8
		c-233.2-34.2-357.2-53-527.7-80.7c-86.6-14.2-227.4-37.5-313.3-51.7c-299.1-48.4-437.9-65.2-562.6-66.5c-76.2-1.3-84,0-91.7,11.6
		c-23.3,33.6-30.4,36.8-73.6,34.2c-36.8-2.6-43.3-5.2-59.4-23.3c-34.9-38.8-20-85.9,33.6-107.2c44.6-18.1,154.4-25.2,269.3-16.8
		c153.7,10.3,244.2,22.6,695.6,96.9c310.7,51,337.2,54.9,639.5,99.5c624.6,92.4,757,109.2,1020.5,127.2
		c152.4,11,669.8,11.6,765.4,0.6c401.1-44.6,722.1-135.6,1230.5-348.1c269.3-113,376.6-154.4,478-185.4
		C16835,39.7,17153.4-7.4,17490.6,0.9c112.4,2.6,162.8,7.1,236.4,19.4c225.4,40,317.1,87.8,400.5,211.2
		c36.2,53.6,43.3,69.8,51,120.8c16.8,110.5,2.6,193.8-51.7,302.3c-92.4,183.4-240.3,359.1-413.4,489
		c-240.3,181.5-758.9,388.8-1329.9,531.6c-351.4,87.8-502.5,150.5-561.3,231.9c-39.4,55.5-32.9,100.1,23.3,156.3
		c130.5,129.8,416,216.4,906.2,273.9c375.3,43.9,833.9,62,1437.2,55.5c223.5-2.6,406.9-5.2,408.2-5.8c0.6-1.3,3.2-80.7,5.8-177
		c4.5-171.8,4.5-175-9-197.6c-7.8-12.3-14.2-31.6-14.2-42.6c0-11.6-16.1-79.4-36.2-151.1c-42-153.7-78.8-333.3-107.2-523.2
		c-17.4-118.8-20-155.7-20.7-274.5l-0.6-138.2l18.1-15.5c22.6-19.4,43.9-20,66.5-0.6l18.1,15.5l-1.9,96.2
		c-1.9,122.1,18.1,292.6,61.4,525.8c18.1,98.2,66.5,297.1,74.3,306.2c2.6,3.2,18.1-20,33.6-51.7c119.5-238.3,176.3-476,158.9-663.3
		c-5.8-59.4-5.2-66.5,5.8-82c17.4-23.3,57.5-25.8,76.9-5.2c11.6,12.3,15.5,28.4,21.3,84c22,219.6-60.7,529-213.2,793.2l-23.9,42
		l-3.9,234.5l-3.9,233.8h88.5c104,0,292.6-12.3,530.9-34.9c297.8-27.8,386.9-31.6,649.8-28.4l246.7,3.9l3.2-23.9
		c14.9-92.4,23.9-367.5,14.2-428.2c-3.2-23.9-9-33.6-26.5-47.2c-12.3-9-22-20.7-22-25.8c0-12.3-78.8-127.9-144.7-212.5
		c-72.3-92.4-208.6-240.9-277.1-301c-66.5-58.1-78.2-78.2-69.8-116.9c8.4-36.2,20.7-47.2,50.4-45.2c13.6,0.6,51,0,82.7-0.6
		c259-8.4,655.6,3.9,1175.6,36.8c640.7,40,903.6,49.1,1106.4,36.2c220.9-14.2,321.7-32.3,525.1-94.3c178.3-54.9,175-54.3,199.6-30.4
		c38.1,38.8,18.1,76.2-51.7,94.9c-23.3,5.8-77.5,22.6-120.8,36.2c-370.8,117.6-645.9,127.2-1665.2,60.7
		c-138.2-8.4-277.1-16.1-544.5-29.1c-213.8-10.3-465.1-14.9-532.9-10.3l-62.7,5.2l80.1,81.4c113,115,237.7,269.3,312.6,387.5
		c22.6,35.5,34.9,47.8,48.4,51c9.7,1.9,27.8,15.5,40.7,29.7l22,26.5l270,4.5c147.9,2.6,350.7,7.8,450.2,11.6
		c353.3,13.6,611,20.7,924.9,24.5c341,4.5,343.6,3.9,374.6-28.4c9.7-9.7,22-14.9,36.8-14.9c22,0,23.3-1.9,160.8-208
		c170.5-256.4,282.3-444.4,282.3-476c0-38.1,34.9-65.2,69.1-54.3c24.5,7.8,42.6,43.3,37.5,72.3c-9.7,53.6-126,251.3-309.4,527.1
		c-165.4,248.7-193.1,287.4-208,287.4c-11,0-11,5.2,0.6,25.8c11,19.4,12.3,87.8,3.2,193.8c-3.2,40.7-7.1,85.3-7.8,99.5l-1.9,24.5
		l271.3,3.2c270.6,3.2,831.3-5.2,1162.6-17.4c96.2-3.9,311.3-12.3,478-19.4c167.3-7.1,313.3-12.9,324.9-12.9h20.7V2210
		c0-27.8-4.5-109.8-10.3-182.8c-5.2-73-12.3-164.1-14.9-203.5c-5.8-76.2,2.6-49.7-147.3-474.7c-133.1-379.8-126.6-358.5-116.9-378.5
		c22.6-47.8,78.8-40.7,98.2,11.6c42.6,116.3,206,584.5,224.1,643.3c1.9,4.5,27.1-29.1,56.8-75.6
		c120.1-189.3,191.8-281.6,323.6-416.6c143.4-146.6,278.4-255.8,317.8-255.8c25.2,0,50.4,25.8,50.4,51.7c0,23.3-9,32.9-86.6,89.8
		c-118.2,86.6-272.6,242.9-376.6,383c-102.1,136.3-221.5,325.5-221.5,350.1c0,6.5-4.5,21.3-10.3,32.9c-9,19.4-9,32.3,0,142.1
		c5.8,66.5,12.3,167.3,14.9,223.5c3.9,99.5,4.5,102.7,17.4,102.7c7.8,0,115.6-4.5,239.6-9.7c288.1-11.6,680.8-22,903-23.3
		c94.9-0.6,173.8-3.2,175.7-5.8c1.3-2.6,7.8-37.5,13.6-78.2c5.8-40,20-120.8,31.7-179.6c20.7-103.3,20.7-106.6,9.7-126
		c-6.5-11-16.1-36.8-22-57.5c-9-31-9.7-42-3.2-60.7c9-28.4,5.8-47.8-29.7-189.3c-38.8-155.7-85.3-281-194.4-529.6
		c-58.8-133.7-62-147.9-38.8-170.5c20.7-21.3,49.1-22,70.4-2.6c23.3,22,184.1,405,226.1,538c23.3,74.3,62,231.9,74.9,304.9l11,62
		l32.9-51c17.4-27.8,69.8-116.3,115-196.4c122.7-217.7,165.4-288.1,222.2-366.9c56.2-78.8,67.8-90.4,170.5-167.3
		c78.2-59.4,96.9-65.2,124-37.5c19.4,18.7,21.3,47.8,5.2,66.5c-6.5,6.5-40.7,34.2-76.2,61.4c-35.5,26.5-75.6,59.4-88.5,72.3
		c-34.9,34.9-117.6,159.5-186,281c-174.4,308.1-237,411.4-284.2,471.5c-14.9,18.7-21.3,40.7-38.1,126
		c-11,56.8-22.6,125.3-26.5,151.8c-3.9,26.5-8.4,54.9-10.3,63.3l-2.6,14.2h468.3h468.3l-3.9-28.4c-3.9-25.2-1.9-31,12.3-45.2
		c30.4-30.4,51.7-22.6,128.5,45.9l31.6,27.8h212.5h213.2v-56.2c0-38.1-2.6-58.8-9-65.9c-5.2-5.8-42.6-110.5-83.3-233.2
		c-120.1-360.4-234.5-662.1-312-826.1c-33.6-71.1-36.2-79.4-29.1-96.2c12.9-31,49.7-42,76.9-23.3c42,29.1,197,417.3,353.3,882.3
		l49.7,146.6l15.5-7.1c9.7-4.5,26.5-26.5,42.6-56.2c65.9-122.1,131.8-237.7,237-414c62-104.6,147.3-250,188.6-322.3
		c42-72.3,82-138.9,89.1-146.6c17.4-20,58.1-21.3,74.9-2.6c29.1,31.6,31,27.1-209.9,432.8c-147.9,248-186,315.2-286.1,497.4
		c-39.4,73-71,126.6-80.7,137.6c-8.4,9-10.3,27.8-11,80.7v69.1h625.9h625.9l11-34.2l11.6-34.2l-18.7-37.5
		c-18.7-37.5-23.9-62.7-93-423.7c-22-114.3-75.6-371.4-106.6-513.5c-35.5-160.8-36.2-166.6-21.3-186c16.1-22,51-26.5,72.3-9.7
		c16.1,12.9,20,28.4,72.3,273.2c46.5,215.7,71.7,343.6,109.2,544.5c18.1,96.9,34.2,178.9,35.5,183.4c1.9,5.2,8.4,5.2,27.1-1.3
		c29.1-9.7,37.5-23.3,116.3-179.6c100.1-199.6,162.8-343,260.3-594.2c32.3-82.7,63.3-162.8,69.8-178.9
		c19.4-49.1,63.9-57.5,94.3-17.4c17.4,23.3,18.7,18.7-94.9,304.9c-134.3,339.1-304.9,690.5-388.8,800.9
		c-18.1,23.3-53,104.6-47.2,110.5c1.3,0.6,151.8,1.3,334.6,1.9c182.8,0.6,339.7,1.3,348.8,1.3c9,0.6,156.3,1.9,327.5,3.2l311.3,3.2
		l1.9-63.3c1.9-55.5,0.6-67.2-12.9-98.2c-8.4-18.7-13.6-40-12.3-47.2c1.9-7.1-4.5-40.7-14.9-74.9
		c-76.9-260.3-140.2-611.7-151.8-844.2c-5.2-102.7,2.6-162.8,23.9-178.9c19.4-14.9,45.2-14.9,63.9,0.6
		c14.9,12.3,15.5,14.9,16.1,124.7c1.3,119.5,14.2,239.6,48.4,437.9c30.4,178.3,78.8,381.1,90.4,381.1c7.1,0,47.2-78.8,82.7-163.4
		c37.5-88.5,67.8-181.5,88.5-275.8c16.1-73.6,18.1-92.4,18.1-213.8c0.6-122.1,1.9-135,12.9-147.3c15.5-16.8,49.1-18.1,68.5-1.9
		c18.7,14.9,24.5,53.6,25.2,161.5c1.3,206-73.6,464.4-201.5,691.8l-34.9,62l-4.5,125.3l-4.5,125.3l689.8-3.9
		c379.1-2.6,696.3-6.5,704.7-8.4c13.6-3.9,14.2-7.1,14.2-69.1c0-48.4-2.6-67.8-9.7-75.6c-5.2-5.8-35.5-89.1-67.2-184.7
		c-115.6-350.7-244.2-693.7-320.4-854.5c-46.5-97.5-48.4-111.1-21.3-136.3c27.8-25.8,62.7-12.3,88.5,35.5
		c71.7,133.1,247.4,597.5,372,983.1c1.9,6.5,6.5,6.5,19.4,0.6c11-5.2,31-34.2,65.9-98.2c73.6-135,131.1-235.1,276.4-478.6
		c71.7-120.8,147.3-250,167.9-286.8c45.9-82,54.3-91.1,85.9-91.1c31,0,49.1,18.1,49.1,47.2c-0.6,20.7-96.9,193.1-240.9,430.8
		c-86.6,142.7-294.5,506.4-350.7,613.6c-9,17.4-11.6,36.8-11.6,91.7v69.8h47.2c87.8,0,505.1-19.4,556.8-25.8
		c85.3-10.3,103.3-9,118.8,10.3c22,28.4,12.9,67.2-18.1,79.4c-34.2,13.6-255.1,27.8-551,36.8l-147.3,4.5v65.2
		c0,63.9-6.5,202.2-19.4,446.3l-6.5,122.1l17.4,18.1c9.7,9.7,20.7,18.1,24.5,18.1c23.9,0,131.8,69.8,205.4,132.4l42,36.2l74.3-39.4
		c40-21.3,80.1-38.8,87.8-38.8c16.8,0,52.3,32.9,52.3,47.8c0,23.3-16.8,44.6-47.8,60.1c-18.1,9-45.2,23.3-60.1,32.3l-27.1,15.5
		l38.8,45.9c105.3,126,152.4,230.6,146.6,327.5c-2.6,41.3-6.5,56.2-22.6,82c-89.8,147.3-449.6,166.6-740.2,40l-43.9-18.7l-53,47.8
		c-69.1,62.7-98.2,82-124,82c-27.8,0-48.4-20.7-48.4-48.4c0-25.2,2.6-28.4,73-85.9c27.1-22,49.7-42.6,49.7-45.2
		c0-3.2-14.9-15.5-33.6-27.1c-162.8-105.9-298.4-277.7-307.5-391.4c-3.9-48.4,15.5-117.6,43.9-157
		c43.3-59.4,188.6-143.4,293.9-169.2c61.4-14.9,182.8-20.7,229.9-10.3l23.9,5.2l4.5-76.2c2.6-42,5.2-84.6,5.8-95.6l0.6-19.4
		l-45.2-3.9c-54.9-5.2-120.1-24.5-279-82.7c-211.9-76.9-315.2-123.4-456-202.2c-74.9-42.6-89.1-54.9-89.8-80.7l-0.6-21.3h-264.2
		H30671v18.7c0,11-3.2,165.4-7.1,343.6c-3.9,178.3-5.2,331.4-3.2,339.1c3.9,13.6,7.8,15.5,38.1,15.5c43.3,0,140.8,26.5,201.5,54.3
		c156.3,72.3,269.3,206.7,306.2,364.9c21.3,89.8,16.8,228.7-9,311.3c-3.9,11,0,12.3,40,12.3c58.8,0,118.2,14.9,132.4,32.3
		c16.8,20.7,14.9,49.1-5.2,69.1c-15.5,15.5-18.7,16.1-53,11c-51-7.8-122.7-6.5-151.1,3.2c-20,6.5-31,18.7-66.5,72.3
		c-76.2,115-191.2,223.5-286.1,270.6C30724.6,4290.4,30611,4308.5,30519.2,4294.3z M18706.8,4129c87.2-18.1,164.7-67.2,249.3-158.2
		c85.3-91.1,158.9-216.4,182.8-309.4c14.9-56.8,14.9-170.5,0.6-226.1c-32.9-125.3-116.9-229.3-231.2-286.1
		c-33.6-16.8-84.6-36.2-113.7-43.3c-50.4-12.3-56.8-12.9-144-3.2c-96.2,9.7-114.3,7.8-131.1-16.1l-9.7-13.6l-50.4,19.4
		c-58.1,22.6-136.9,71.1-179.6,110.5c-96.9,89.1-160.8,286.8-150.5,464.4c11.6,203.5,150.5,378.5,353.3,445.7
		C18564.7,4139.9,18630.6,4145.1,18706.8,4129z M30784.7,3891.3c124-18.1,283.6-62,288.7-80.1c1.9-5.8,11.6-32.9,21.3-59.4
		c16.8-44.6,18.1-56.2,18.1-145.3c0.6-84.6-1.3-102.7-14.2-142.1c-51-153.1-173.1-260.3-348.8-304.2c-35.5-9-50.4-9-122.7-1.9
		c-110.5,11-116.9,11-135-9.7c-17.4-20.7-27.1-19.4-103.3,16.8c-182.8,85.9-268.7,225.4-292.6,471.5c-7.1,71.7-0.6,138.9,19.4,202.8
		c23.3,76.9-14.9,69.1,312,65.2C30642.6,3902.9,30731.1,3899,30784.7,3891.3z M28988.4,3784c127.9-12.9,323-24.5,390.1-23.3
		l35.5,0.6l7.8-32.3c41.3-159.5-15.5-426.3-122.1-569.7c-32.3-43.3-85.9-89.8-113-97.5c-22.6-5.8-100.8-5.2-132.4,1.3
		c-22.6,3.9-24.5,6.5-21.3,20.7c4.5,16.8-5.2,40-21.3,52.3c-5.8,3.9-26.5,9-45.9,11.6c-60.1,7.8-98.8,26.5-138.9,65.9
		c-62,62-109.2,173.8-129.2,305.5c-16.1,105.3-9.7,246.7,12.9,281.6c8.4,12.9,10.3,13.6,78.8,5.2
		C28827.6,3800.8,28917.4,3791.2,28988.4,3784z M27652.7,3696.2c80.7-45.2,268.1-156.3,388.8-231.2c26.5-16.1,58.1-31.6,69.8-33.6
		c11.6-1.9,21.3-7.8,21.3-12.3c0-18.7-142.1-200.9-192.5-247.4c-44.6-40-63.3-48.4-118.8-53c-33.6-2.6-54.3-7.8-62-14.9
		c-15.5-14.2-63.9-14.2-161.5-1.3c-84.6,11-149.9,25.2-174.4,38.1c-25.8,13.6-57.5,49.1-69.1,77.5c-26.5,62.7-36.8,186-22,257.1
		c12.3,56.8,48.4,119.5,99.5,170.5c40.7,40.7,115,98.2,127.2,98.8C27561.6,3745.3,27603.6,3723.3,27652.7,3696.2z M32045.5,3445.6
		c105.3-94.9,169.2-147.3,217-177.6c36.8-23.3,72.3-45.9,78.8-50.4c11.6-7.1,11-8.4-7.1-23.9c-10.3-9-30.4-24.5-43.9-33.6
		c-22.6-16.1-24.5-16.8-35.5-6.5c-16.1,13.6-54.9,13.6-67.2-0.6c-5.2-6.5-16.8-24.5-25.2-40c-11.6-20.7-22.6-31.6-43.3-40
		c-15.5-7.1-30.4-18.7-34.2-27.8c-9-19.4-32.3-28.4-96.2-36.8c-120.1-14.9-273.9,34.2-372.7,119.5c-32.3,28.4-51,75.6-44.6,115
		c12.3,74.9,109.8,195.7,229.9,284.2c49.1,36.2,84.6,57.5,90.4,54.9C31893.7,3581.2,31962.8,3519.9,32045.5,3445.6z M25329.3,3525
		c13.6-54.9,5.2-147.9-18.1-211.9c-51.7-138.2-195.7-357.8-280.3-426.9c-70.4-57.5-167.3-109.8-228.7-123.4
		c-114.3-25.8-259,80.7-321,235.8c-24.5,60.7-43.3,160.8-43.3,231.2c0,61.4,9.7,133.1,19.4,142.7c5.2,5.8,89.8,23.9,529.6,114.3
		c118.8,24.5,240.9,49.7,271.3,56.8c30.4,7.1,56.8,13.6,59.4,13.6C25319.7,3558,25325.5,3543.1,25329.3,3525z M26072.1,3258.3
		c58.1-5.8,135-10.3,170.5-10.3c73,0,187.3-9,264.8-20.7l50.4-7.8l-3.9-35.5c-9-75.6-90.4-182.1-168.6-220.9
		c-42.6-20.7-56.8-22-153.1-8.4c-22,2.6-50.4-0.6-103.3-13.6c-131.8-31.6-196.4-14.9-274.5,71.1c-68.5,74.9-103.3,161.5-87.2,215.1
		c4.5,13.6,13.6,32.3,20,41.3l12.9,15.5l82.7-7.8C25928.8,3271.8,26014,3263.4,26072.1,3258.3z M22287.1,3179.5
		c0-16.1,3.9-38.8,9-49.7c7.8-16.8,10.3-74.3,12.3-282.3c2.6-171.2,7.1-295.2,13.6-358.5c29.1-277.1,36.8-418.5,26.5-491.5
		l-4.5-32.9l-346.2-3.9c-330.1-4.5-774.4-16.1-1105.8-30.4c-83.3-3.2-239.6-6.5-346.2-6.5h-194.4l-4.5,108.5
		c-5.8,141.5-14.2,246.7-29.7,369.5c-25.2,199.6-41.3,391.4-55.5,651.7l-3.9,79.4l18.1-3.9c84.6-17.4,226.7-23.3,565.8-23.3
		c459.9,0,558.7,5.2,919.1,48.4c42.6,5.2,160.2,16.8,261.6,25.8s198.9,19.4,216.4,22c18.1,3.2,36.2,5.8,40.7,6.5
		C22284.5,3209.2,22287.1,3199.5,22287.1,3179.5z M18755.9,2655.6c48.4-22,218.3-121.4,256.4-150.5c16.1-12.3,14.2-12.3-145.3-8.4
		c-88.5,1.9-162.1,3.9-162.8,4.5c-3.2,2.6-9,178.3-5.8,178.3C18701,2679.5,18726.8,2668.6,18755.9,2655.6z M30561.2,2597.5
		c0-24.5,1.9-94.3,4.5-155l3.9-111.7H30341h-228l69.8,47.2c109.8,73.6,254.5,177,304.2,217.7c41.3,33.6,56.2,43.3,69.8,44.6
		C30559.3,2640.8,30561.2,2621.4,30561.2,2597.5z M27779.3,2549.1c2.6-42.6,4.5-112.4,4.5-155v-76.2h-159.5h-160.2l67.8,69.8
		c175,179.6,235.8,240.3,239.6,240.3C27773.5,2627.9,27777.3,2592.3,27779.3,2549.1z M32081,2513.5c2.6-56.2,4.5-122.1,4.5-146.6
		v-44.6l-327.5,3.9c-180.9,2.6-351.4,4.5-379.8,4.5c-63.3,0.6-63.3,0,60.1,63.3c102.1,52.3,124,61.4,310.7,131.1
		c174.4,65.2,253.2,89.1,295.2,89.1l32.9,0.6L32081,2513.5z M29055.6,2542.6c4.5-29.7,16.8-89.8,27.1-133.7
		c14.9-63.3,17.4-81.4,11-85.9c-4.5-2.6-108.5-5.2-230.6-5.2h-222.2l100.8,67.8c55.5,36.8,144,99.5,196.4,138.2
		c53,38.8,98.8,71.1,102.7,71.1C29044.6,2595.6,29051.1,2571.7,29055.6,2542.6z M24691.8,2482.5c9-3.9,11-13.6,11-62
		c0-54.9-0.6-57.5-14.2-57.5c-31,0-487,20-496.1,21.3c-14.9,3.2,65.2,42,129.8,62.7c51.7,17.4,127.2,33.6,186.7,41.3
		C24541.3,2492.2,24678.3,2488.3,24691.8,2482.5z M26107.7,2479.3c5.2,0,9.7-23.9,14.9-75.6c3.9-42,5.8-76.9,5.2-78.2
		c-1.3-0.6-83.3-0.6-182.1,0l-180.2,1.9l113,56.2c62,30.4,129.2,65.9,148.6,78.8c25.8,16.8,40.7,22,54.3,20
		C26091.5,2480.6,26103.1,2479.3,26107.7,2479.3z"/>
	<path class="st0" d="M20716.3,2941.1c-1.9-1.9-18.7-4.5-37.5-5.8c-23.9-1.9-38.1-6.5-47.8-16.1c-12.9-13.6-13.6-19.4-12.9-167.3
		c0.6-84,3.9-184.7,7.8-224.1c36.2-361.1,40-417.9,34.2-439.9c-8.4-29.7,1.9-53.6,27.1-63.9c14.9-6.5,27.1-5.8,58.8,0.6
		c21.3,4.5,62.7,9.7,91.1,11.6c238.3,18.7,394,32.3,503.8,45.9c242.2,29.7,524.5,54.9,611,54.9c42,0,53,1.9,63.9,12.9
		c18.7,18.7,22.6,42.6,10.3,61.4c-8.4,12.3-9,18.7-3.2,31.6c5.8,12.3,5.2,29.1-3.2,73c-31.7,167.3-45.2,459.2-25.8,555.5
		c3.2,17.4,0.6,23.9-15.5,40.7c-19.4,19.4-54.3,26.5-62.7,13.6c-1.9-3.9-10.3-3.9-21.3-0.6
		C21861.5,2936,20726.6,2950.8,20716.3,2941.1z M21687.1,2830l191.2-3.9l4.5-149.2c4.5-158.9,16.1-293.9,32.9-370.8
		c5.2-25.8,9.7-51,9.7-55.5c0-5.8-38.1-11-140.2-19.4c-168.6-13.6-345.6-31-484.4-48.4c-143.4-18.1-523.8-49.7-529.6-43.9
		c-4.5,4.5-44.6,430.2-50.4,534.8c-3.9,67.2-3.2,84.6,5.2,100.8c7.1,12.9,9,27.8,6.5,43.9l-3.9,24.5l383.7-3.9
		C21323.4,2836.5,21581.8,2832.6,21687.1,2830z"/>
	<path class="st0" d="M14751.3,4262c-87.8-18.7-163.4-64.6-250.6-151.8c-73-73.6-118.2-138.2-149.2-216.4
		c-16.8-40.7-29.7-146-27.8-217.7c0.6-25.8-1.3-49.7-4.5-53c-8.4-7.1-83.3-26.5-102.1-26.5c-26.5,0-51.7-26.5-51.7-54.9
		c0-47.2,49.1-60.7,131.1-35.5c23.3,7.1,42.6,11.6,43.3,11c0.6-0.6,8.4-29.1,18.1-62.7c40-141.5,105.3-246.1,185.4-297.8
		c27.1-18.1,31.6-23.9,31.6-42c0-14.9,5.2-24.5,16.8-34.2c15.5-12.3,110.5-45.2,158.2-54.9l16.8-3.9l4.5-116.9
		c10.3-260.3,37.5-423.1,106.6-639.5l20-62l-18.7-41.3c-12.9-27.8-27.1-79.4-42-157.6c-72.3-374-105.9-540-146-727.3
		c-38.8-177.6-43.9-211.9-38.1-227.4c13.6-32.9,57.5-41.3,81.4-16.1c14.2,15.5,20,39.4,78.8,315.2c50.4,237,62.7,300.3,100.1,499.3
		c19.4,102.7,36.2,187.3,37.5,188.6c1.3,1.3,12.9-1.3,25.8-5.2c27.1-8.4,43.3-34.2,131.1-209.9c92.4-186.7,167.3-361.1,281.6-659.5
		c21.3-54.9,43.3-105.3,49.1-111.7c16.8-18.7,56.2-15.5,72.3,5.2c7.8,9.7,13.6,23.3,13.6,31c0,21.3-106.6,297.1-193.8,501.2
		c-47.8,112.4-173.8,371.4-220.3,454.1c-18.7,32.9-49.1,81.4-67.2,107.9c-26.5,38.1-40,67.8-60.7,131.1
		c-30.4,93-69.8,250-75.6,299.1l-3.9,33.6l22.6,7.1c27.8,9,143.4,87.8,243.5,165.4c171.8,133.1,632.3,527.1,699.5,598.1
		c22,23.9,22.6,49.7,1.3,73c-29.7,32.3-45.2,25.8-144-62.7c-193.1-173.1-221.5-197.6-314.6-275.8c-279.7-235.1-488.3-394-516.7-394
		c-9.7,0-14.2,39.4-20,178.3l-4.5,104l43.9,7.1c61.4,10.3,108.5,36.2,162.1,88.5c91.1,89.8,170.5,266.1,197,436.6
		c11,71.1,3.9,229.3-12.9,290c-17.4,62.7-16.8,67.2,4.5,76.9c95.6,44.6,234.5,84.6,333.9,97.5c65.9,8.4,87.2,21.3,87.2,53
		c0,47.8-23.9,60.1-102.7,50.4c-84.6-10.3-176.3-34.2-272.6-71.1c-122.7-47.2-109.2-47.8-147.3,9
		c-63.3,93.7-153.1,169.9-237.7,201.5C14877.9,4264.6,14797.1,4271.7,14751.3,4262z M14897.2,4146.4c42-16.1,114.3-74.3,155-126
		c31-38.8,49.1-67.8,44.6-71.7c-1.9-1.3-74.9-34.2-299.1-134.3c-161.5-71.7-360.4-152.4-366.2-149.2c-14.9,9,2.6,160.8,23.3,206.7
		c23.9,51.7,77.5,127.2,121.4,171.2C14686.7,4152.2,14793.3,4186.4,14897.2,4146.4z M15159.5,3803.4c14.2-53.6,19.4-177,11-242.9
		c-15.5-112.4-72.3-262.9-128.5-339.1c-67.2-91.1-126.6-118.8-221.5-102.7l-45.2,7.8v21.3c0,36.2-18.7,52.3-71.7,60.1
		c-61.4,9-107.9,32.9-146,74.9c-46.5,51-98.8,166.6-108.5,240.3l-4.5,32.9l56.8,21.3c104,38.8,254.5,103.3,577.4,248.7
		c33.6,15.5,63.3,25.8,65.2,23.9C15146.6,3847.3,15153,3826.7,15159.5,3803.4z"/>
	<path class="st0" d="M14233.2,4141.2c-5.2-1.9-45.9-27.8-90.4-56.8c-105.9-68.5-199.6-126-205.4-126c-3.2,0-13.6,4.5-23.3,9.7
		c-59.4,31-189.3,51.7-279,45.2c-184.7-14.2-349.4-78.2-486.4-188.6c-93.7-76.2-160.2-176.3-177-268.1l-7.8-43.3l-29.7-11
		c-63.9-23.3-120.1-49.7-133.7-62.7c-20.7-18.1-20-51.7,1.3-72.3c20.7-21.3,33.6-20.7,94.3,6.5c65.9,29.1,70.4,29.1,70.4-1.9
		c0-35.5,23.9-122.1,43.9-159.5c33.6-62.7,89.1-104.6,168.6-128.5c43.3-12.9,164.1-29.7,249.3-35.5l64.6-3.9l4.5-58.1
		c19.4-248,25.8-421.8,23.3-613.6c-2.6-177-4.5-209.3-13.6-222.8c-5.8-9-29.7-75.6-53.6-148.6c-113-347.5-269.3-765.4-339.7-905.6
		c-35.5-71.7-38.1-95.6-14.9-118.2c18.1-18.7,39.4-20.7,60.7-5.2c42,29.1,204.8,433.4,354.6,880.4c26.5,80.1,49.1,146,50.4,147.3
		c0.6,1.3,9-2.6,18.1-8.4c9.7-6.5,41.3-56.2,78.8-124.7c74.9-136.9,146.6-260.3,273.9-472.8c51.7-87.2,114.3-193.1,138.2-235.8
		c62-108.5,70.4-119.5,98.2-119.5c25.8,0,54.3,23.3,54.3,45.2c0,7.8-5.2,24.5-11.6,37.5c-19.4,38.1-132.4,233.2-213.2,366.2
		c-86.6,144-195.7,332.6-275.8,478c-31.6,56.8-67.2,119.5-79.4,138.9l-22.6,35.5l1.3,235.8c0.6,129.8-1.9,288.1-6.5,352
		c-3.9,63.9-7.8,145.3-9,180.9c-1.3,35.5-3.9,82.7-6.5,105.3c-4.5,38.1-3.9,41.3,10.3,51.7c8.4,5.8,24.5,14.2,36.2,18.7
		c56.8,20.7,126.6,85.9,217.7,202.8c209.3,268.1,257.7,412.1,185.4,553.5c-7.1,14.2-16.1,27.8-20,30.4c-11.6,7.1-7.1,20.7,10.3,28.4
		c25.2,11,222.8,139.5,240.3,155.7c18.1,16.8,19.4,57.5,3.2,73C14272.7,4139.9,14246.2,4146.4,14233.2,4141.2z M13785.6,3899
		c43.3-7.8,53.6-0.6-147.3-106.6c-60.7-32.3-214.4-104-300.3-140.8s-247.4-94.9-255.1-92.4c-3.2,1.3,4.5,23.9,18.1,50.4
		c46.5,93.7,164.7,189.3,302.3,244.8C13535,3907.4,13664.8,3922.9,13785.6,3899z M13958.1,3793.7c17.4-27.8,19.4-36.8,19.4-80.1
		c-0.6-56.8-14.2-95.6-63.9-179.6c-45.2-75.6-166.6-235.1-218.3-286.8c-56.8-56.8-82.7-70.4-136.3-70.4c-32.9,0-43.9-2.6-53-12.9
		c-14.9-16.1-47.2-16.8-158.2-3.2c-155.7,19.4-202.2,36.8-237,89.1c-21.3,31.6-38.8,96.9-42,156.3l-1.9,31.6l77.5,27.8
		c236.4,85.3,470.9,191.8,710.5,324.2c39.4,21.3,74.3,38.1,77.5,36.8C13936.1,3826,13947.8,3811.2,13958.1,3793.7z"/>
	<path class="st0" d="M9726.7,3950.7c-10.3-7.8-40-33.6-65.9-57.5l-47.2-42.6l-104.6-3.9c-155.7-4.5-288.7-36.2-427.6-100.8
		c-193.1-90.4-383.7-273.2-430.2-412.7c-25.8-76.9-7.1-169.2,45.9-229.9c11.6-12.9,18.7-25.8,15.5-29.1
		c-27.1-22.6-75.6-59.4-97.5-73.6c-36.2-23.3-49.7-43.9-43.9-69.1c5.2-23.9,25.2-38.8,52.3-38.8c20,0,82.7,40,151.8,97.5
		c16.8,14.2,32.9,25.2,36.8,25.2c3.2,0,26.5-9.7,50.4-22c93.7-45.9,158.2-58.1,280.3-54.3l90.4,2.6v-19.4c0-11,4.5-82.7,10.3-158.9
		c6.5-93,9.7-223.5,9.7-393.4c0-231.9-1.3-255.1-11.6-266.8c-5.8-6.5-40.7-101.4-76.9-210.6c-108.5-328.1-227.4-646.6-297.8-799
		c-60.7-130.5-58.1-123.4-46.5-144c14.2-25.2,38.1-35.5,63.3-26.5c18.1,6.5,25.8,17.4,58.8,85.9c20.7,42.6,51,110.5,67.2,149.9
		c61.4,149.9,193.1,512.2,259,713.1c13.6,40.7,25.2,76.2,27.1,78.8c1.3,2.6,9,1.3,17.4-1.9c10.3-5.2,37.5-47.2,82-127.9
		c73.6-132.4,209.3-364.9,277.1-475.4c23.9-38.8,74.9-126,113-193.8c76.2-135,93.7-158.2,120.1-158.2s51,22.6,51,48.4
		c0,21.3-93,189.9-217.7,394c-67.2,110.5-153.1,257.7-230.6,397.2c-34.9,62-83.3,147.9-107.9,190.5l-43.9,77.5l1.3,242.2
		c0.6,224.1-8.4,490.2-20,597.5c-5.2,42.6-4.5,45.2,11,60.1c9,9,35.5,24.5,58.1,34.9c108.5,49.7,278.4,198.3,373.3,327.5
		c149.9,202.2,147.9,366.9-4.5,439.2l-38.1,18.1l34.9,33.6c40.7,38.8,47.2,55.5,32.9,83.3
		C9789.4,3968.8,9757.7,3973.9,9726.7,3950.7z M9494.9,3739.5c-47.8-45.2-201.5-179.6-332.6-290.7
		c-289.4-246.1-352-297.8-359.1-297.8c-22,0-60.7,69.8-60.7,110.5c0,76.9,123.4,227.4,262.9,321c60.1,40.7,162.8,89.8,236.4,113.7
		C9345,3729.8,9514.9,3758.9,9494.9,3739.5z M9728,3709.8c47.2-23.3,62.7-46.5,58.8-90.4c-7.1-84-73-189.3-191.2-307.5
		c-44.6-44.6-98.2-93.7-118.8-109.2c-35.5-26.5-37.5-27.1-49.1-16.8c-8.4,7.8-20.7,10.3-36.8,9c-22.6-1.9-27.8-5.8-49.7-39.4
		c-16.8-25.8-32.3-41.3-47.8-47.2c-12.3-5.2-27.1-18.1-32.9-29.1c-6.5-11.6-20-22-33.6-25.8c-38.8-12.3-159.5-14.2-210.6-3.9
		c-49.1,10.3-114.3,35.5-111.1,43.3c1.3,1.9,40,35.5,85.9,74.3c46.5,38.8,113,94.9,148.6,125.3c35.5,30.4,82,69.8,103.3,87.8
		c69.1,57.5,282.9,246.1,339.1,299.7c53.6,51,55.5,52.3,82,49.7C9679.6,3728.5,9708,3719.5,9728,3709.8z"/>
	<path class="st0" d="M10620,3925.5c-185.4-25.2-369.5-159.5-470.9-342.3c-27.1-49.1-28.4-50.4-59.4-57.5c-17.4-3.9-53-8.4-79.4-11
		c-62-5.2-85.9-19.4-85.9-51c0-50.4,26.5-65.9,96.2-54.9c67.2,10.3,63.9,11.6,58.1-23.3c-11.6-71.1-3.9-188.6,17.4-276.4
		c36.2-145.3,135.6-288.7,240.9-346.9c21.3-11.6,39.4-24.5,39.4-28.4c0-10.3,20-25.8,42-32.9l19.4-6.5l3.9-160.8
		c5.8-231.9-14.9-673.7-33.6-729.2c-3.9-10.3-38.1-111.1-76.9-222.8c-38.1-111.7-89.1-257.1-113-323c-71-196.4-75.6-212.5-61.4-239
		c3.2-6.5,15.5-14.9,26.5-18.7c17.4-5.8,24.5-5.2,40.7,4.5s23.3,21.3,38.8,65.9c10.3,30.4,36.2,102.7,56.8,161.5
		c21.3,58.8,64.6,182.1,96.2,274.5c31.6,92.4,58.8,171.8,60.7,177c2.6,5.8,16.8-11.6,37.5-45.2c89.1-141.5,181.5-271.3,248.7-348.1
		c144-164.7,364.3-355.3,411.4-355.3c18.1,0,41.3,17.4,49.1,36.2c5.8,16.8-7.1,60.7-18.7,60.7c-3.2,0-36.2,22.6-73,49.7
		c-79.4,58.8-260.3,237-330.7,326.2c-108.5,137.6-262.2,376.6-262.9,408.9c0,7.1-3.9,20.7-9,29.7c-7.1,14.2-7.1,33.6,0,119.5
		c17.4,212.5,22.6,368.2,18.1,552.9l-4.5,184.7l31.7,4.5c34.9,5.2,67.2,19.4,67.2,29.1c0,3.2,22.6,17.4,50.4,31.6
		c140.2,71.1,247.4,181.5,362.4,374c92.4,156.3,123.4,245.4,126.6,366.2l1.9,77.5l25.2,4.5c135,26.5,218.3,47.8,231.9,58.1
		c31.6,25.2,11.6,89.1-28.4,89.1c-7.8,0-58.1-9.7-112.4-22c-54.3-12.3-111.7-23.9-127.9-26.5c-27.8-3.9-29.7-3.2-41.3,17.4
		c-31,51.7-109.8,119.5-182.8,156.3C10841.6,3917.1,10721.4,3939.7,10620,3925.5z M10809.3,3805.4c30.4-8.4,74.9-26.5,98.8-39.4
		c48.4-25.8,124.7-90.4,116.3-98.2c-7.8-7.1-140.2-25.2-395.9-54.9c-146.6-16.8-244.8-31-319.7-45.2c-24.5-4.5-46.5-7.8-47.8-5.8
		c-10.3,9.7,89.1,120.8,146,162.8C10538,3820.9,10664.6,3846.7,10809.3,3805.4z M11077.3,3539.2c5.2-31-6.5-111.7-22.6-157.6
		c-43.9-126-158.9-309.4-255.8-408.9c-62-63.9-165.4-126-246.7-148.6c-35.5-9.7-42-9.7-87.2,0c-143.4,32.3-255.1,185.4-282.3,389.5
		c-8.4,63.3-6.5,139.5,5.8,193.1l7.8,33.6l85.3,16.1c97.5,18.7,193.8,32.3,489,69.1c115.6,14.2,222.8,28.4,239,31.6
		C11067.6,3569,11072.2,3567,11077.3,3539.2z"/>
	<path class="st0" d="M11862.1,3635.5c-69.1-14.2-129.8-37.5-200.2-75.6c-145.3-78.2-222.2-152.4-257.7-248
		c-6.5-16.8-20-22-107.2-34.9c-50.4-8.4-71.7-53.6-41.3-86.6c12.9-14.2,18.1-14.9,66.5-11.6c29.1,1.9,60.1,5.8,70.4,8.4
		c12.9,3.2,17.4,1.9,17.4-5.8c0-20,52.3-113,91.1-161.5c42.6-53,118.2-109.8,170.5-127.9c27.8-9.7,149.2-12.3,179.6-3.9l18.1,5.2
		l-5.2-60.1c-7.8-92.4-5.8-362.4,3.2-434.7c23.9-186,36.2-268.7,56.8-372.7c20.7-107.2,22-115.6,12.3-130.5
		c-22-33.6-36.2-116.9-22.6-130.5c12.9-12.9-45.9-255.8-91.7-379.8c-38.8-106.6-111.7-282.9-175.7-425.7
		c-19.4-42.6-17.4-62.7,7.1-82c22-16.8,42.6-16.1,62.7,1.9c20.7,18.1,129.2,266.8,198.9,456c32.9,90.4,88.5,297.1,102.1,381.7
		c11,69.8,11.6,69.8,28.4,44.6c24.5-36.8,76.2-124.7,162.1-277.1c104.6-184.7,98.8-175.7,135.6-232.5c53-82,111.1-157,143.4-184.7
		c42.6-35.5,131.1-102.1,148.6-111.1c34.9-18.7,73,5.8,73,46.5c0,25.2-4.5,29.7-113,111.7c-84,63.9-133.7,133.1-284.2,399.2
		c-128.5,226.1-171.8,299.1-222.8,371.4l-43.3,61.4l-20,106.6c-57.5,302.9-78.2,565.2-58.8,749.9c9,93,9.7,93.7,89.1,97.5
		c58.8,2.6,69.8,5.8,114.3,27.1c93,46.5,188,155.7,216.4,250.6c11,36.2,12.9,56.2,11,104c-3.2,62.7-17.4,102.7-52.3,154.4
		c-18.1,26.5-16.8,31,8.4,31c9.7,0,25.2,5.8,34.9,13.6c21.3,16.8,23.3,54.3,3.9,75.6c-15.5,16.1-36.8,18.1-104,7.1l-44.6-7.8
		l-71.7,37.5c-39.4,20-86.6,41.3-105.3,45.9C12021,3651.6,11928,3649.7,11862.1,3635.5z M12062.3,3530.2c25.8-11,31.6-7.8-74.3-40
		c-42.6-13.6-132.4-44.6-200.2-69.1c-118.8-44.6-232.5-82.7-245.4-82.7c-12.9,0,54.3,60.7,100.1,89.8
		c89.8,57.5,180.2,96.2,259.7,109.8C11948.7,3546.4,12034.6,3542.5,12062.3,3530.2z M12225.8,3418.5c12.3-13.6,32.3-40,43.9-59.4
		c38.1-63.3,32.9-144-12.9-213.8c-32.9-49.1-90.4-102.7-133.7-124c-43.3-21.3-40-21.3-154.4-8.4c-22.6,2.6-53.6-1.3-104.6-12.9
		c-78.2-18.1-105.9-20-149.9-9.7c-61.4,13.6-147.9,96.2-185.4,177c-23.9,51-24.5,50.4,57.5,74.3c39.4,11.6,133.7,43.9,208,71.1
		c168.6,62,359.8,122.7,405,128.5C12201.9,3441.7,12213.5,3431.4,12225.8,3418.5z"/>
</g>
</svg>
